<?xml version="1.0" encoding="UTF-8"?>
<svg width="80px" height="59px" viewBox="0 0 80 59" version="1.1" xmlns="http://www.w3.org/2000/svg" xmlns:xlink="http://www.w3.org/1999/xlink">
    <!-- Generator: Sketch 55.2 (78181) - https://sketchapp.com -->
    <title>Icon / Seller University</title>
    <desc>Created with Sketch.</desc>
    <g id="Final-Comps" stroke="none" stroke-width="1" fill="none" fill-rule="evenodd">
        <g id="Sell-Dot-07-Programs" transform="translate(-168.000000, -1048.000000)">
            <g id="Card-1" transform="translate(120.000000, 998.000000)">
                <g id="Icon-/-Amazon-Business" transform="translate(48.000000, 40.000000)">
                    <g id="B2B" transform="translate(0.000000, 10.000000)">
                        <path d="M34.016,1.28364865 L34.016,8.75432432 C34.008,10.6917568 32.432,12.2704054 30.488,12.2704054 L30.488,12.2704054 C28.544,12.2624324 26.96,10.6917568 26.96,8.75432432 L26.96,1.28364865 L34.016,1.28364865 Z" id="Path" fill="#B2E5F6"></path>
                        <path d="M48.128,1.28364865 L48.128,8.75432432 C48.12,10.6917568 46.544,12.2704054 44.6,12.2704054 L44.6,12.2704054 C42.656,12.2624324 41.072,10.6917568 41.072,8.75432432 L41.072,1.28364865 L48.128,1.28364865 Z" id="Path" fill="#B2E5F6"></path>
                        <path d="M62.24,1.28364865 L62.24,8.75432432 C62.232,10.6917568 60.656,12.2704054 58.712,12.2704054 L58.712,12.2704054 C56.768,12.2624324 55.184,10.6917568 55.184,8.75432432 L55.184,1.28364865 L62.24,1.28364865 Z" id="Path" fill="#B2E5F6"></path>
                        <path d="M37.672,18.9995946 L37.672,25.1866216 C37.688,26.4064865 38.688,27.3871622 39.912,27.3871622 L40.112,27.3871622 L40.112,18.9995946 L37.672,18.9995946 Z" id="Path"></path>
                        <path d="M72.944,25.1866216 C72.944,26.4224324 73.944,27.4190541 75.184,27.4190541 C76.424,27.4190541 77.424,26.4224324 77.424,25.1866216 L77.424,18.9995946 L72.944,18.9995946 L72.944,25.1866216 Z" id="Path" fill="#B2E5F6"></path>
                        <path d="M77.28,31.2859459 L44.848,31.2859459 C44.072,31.2859459 43.44,31.9158108 43.44,32.6891892 L43.44,53.1637838 C43.44,53.9371622 44.072,54.567027 44.848,54.567027 L77.28,54.567027 C78.056,54.567027 78.688,53.9371622 78.688,53.1637838 L78.688,32.6891892 C78.688,31.9158108 78.056,31.2859459 77.28,31.2859459 Z M56.832,38.1347297 L56.832,51.7206757 L56.832,51.7206757 C56.832,52.4302703 56.256,53.0043243 55.544,53.0043243 L47.096,53.0043243 C46.384,53.0043243 45.808,52.4302703 45.808,51.7206757 L45.808,51.7206757 L45.808,34.1402703 C45.808,33.4306757 46.384,32.8566216 47.096,32.8566216 L55.56,32.8566216 C56.272,32.8566216 56.848,33.4306757 56.848,34.1402703 L56.832,38.1347297 Z M69.656,41.2840541 C69.656,41.9936486 69.08,42.5677027 68.368,42.5677027 L61.216,42.5677027 C60.504,42.5677027 59.928,41.9936486 59.928,41.2840541 L59.928,34.1482432 C59.928,33.4386486 60.504,32.8645946 61.216,32.8645946 L68.384,32.8645946 C69.096,32.8645946 69.672,33.4386486 69.672,34.1482432 L69.656,41.2840541 Z" id="Shape" fill="#B2E5F6"></path>
                        <path d="M44.728,25.1866216 C44.728,26.4224324 45.728,27.4190541 46.968,27.4190541 C48.208,27.4190541 49.208,26.4224324 49.208,25.1866216 L49.208,18.9995946 L44.728,18.9995946 L44.728,25.1866216 Z" id="Path" fill="#B2E5F6"></path>
                        <path d="M62.376,26.9625299 C62.0014289,27.2378133 61.540658,27.3871622 61.072,27.3871622 C59.848,27.3871622 58.856,26.4064865 58.832,25.1866216 L58.832,18.9995946 L62.376,18.9995946 L63.304,18.9995946 L63.304,25.1866216 C63.304,25.8962162 62.96,26.5659459 62.376,26.9805405 L62.376,26.9625299 Z" id="Combined-Shape" fill="#B2E5F6"></path>
                        <path d="M60.96,14.8535738 L28.528,14.8535738 C27.752,14.8456757 27.12,15.4755405 27.112,16.2489189 L27.112,16.2568919 L27.112,30.5683784 C19.84,26.2709459 10.448,28.6708108 6.136,35.9182432 C1.824,43.1656757 4.232,52.5259459 11.504,56.8233784 C18.776,61.1208108 28.168,58.7209459 32.48,51.4735135 C34.88,47.4312162 35.28,42.5198649 33.568,38.1427027 L40.112,38.1427027 L40.112,29.9544595 L39.912,29.9544595 C37.248,29.9544595 35.096,27.8017568 35.096,25.1547297 L35.096,25.1547297 L35.096,17.7159459 C35.096,17.0063514 35.672,16.4322973 36.384,16.4322973 L62.384,16.4322973 L62.384,16.2648649 C62.384,15.4914865 61.752,14.8616216 60.976,14.8616216 C60.968,14.8535738 60.968,14.8535738 60.96,14.8535738 Z" id="Shape" fill="#B2E5F6"></path>
                        <path d="M24.192,46.912973 L24.192,46.912973 C24.128,47.0724324 24.032,47.2159459 23.912,47.3355405 L20.264,50.9712162 C19.744,51.4575676 18.928,51.4256757 18.44,50.9074324 C17.976,50.4131081 17.976,49.6477027 18.44,49.1533784 L19.888,47.7102703 L10.136,47.7102703 C9.424,47.7102703 8.848,47.1362162 8.848,46.4266216 C8.848,45.717027 9.424,45.142973 10.136,45.142973 L19.888,45.142973 L18.432,43.6918919 C18.032,43.1098649 18.184,42.3045946 18.768,41.9059459 C19.216,41.602973 19.808,41.6109459 20.248,41.9298649 L23.896,45.5655405 C24.016,45.6851351 24.112,45.8286486 24.176,45.9881081 L24.176,45.9881081 C24.296,46.2910811 24.296,46.6259459 24.176,46.9289189 L24.176,46.912973 L24.192,46.912973 L24.192,46.912973 Z" id="Path" fill="#232F3E"></path>
                        <path d="M22.992,38.0231081 L13.24,38.0231081 L14.688,39.4662162 C15.232,39.9286486 15.296,40.7339189 14.832,41.2760811 C14.368,41.8182432 13.56,41.882027 13.016,41.4195946 C12.968,41.3797297 12.92,41.3318919 12.872,41.2760811 L9.216,37.6483784 C9.096,37.5287838 9,37.3852703 8.936,37.2258108 L8.936,37.2258108 C8.816,36.9228378 8.816,36.587973 8.936,36.285 L8.936,36.285 C9,36.1255405 9.096,35.982027 9.216,35.8624324 L12.872,32.1789189 C13.392,31.6925676 14.208,31.7244595 14.696,32.2427027 C15.16,32.737027 15.16,33.5024324 14.696,33.9967568 L13.248,35.4398649 L22.992,35.4398649 C23.704,35.4398649 24.28,36.0139189 24.28,36.7235135 C24.28,37.4331081 23.704,38.0231081 22.992,38.0231081 Z" id="Path" fill="#232F3E"></path>
                        <path d="M68.392,32.8645946 L61.216,32.8645946 C60.504,32.8645946 59.928,33.4386486 59.928,34.1482432 L59.928,41.292027 C59.928,42.0016216 60.504,42.5756757 61.216,42.5756757 L68.384,42.5756757 C69.096,42.5756757 69.672,42.0016216 69.672,41.292027 L69.672,34.1482432 C69.672,33.4386486 69.096,32.8645946 68.392,32.8645946 Z M67.104,40.0083784 L62.504,40.0083784 L62.504,35.4318919 L67.096,35.4318919 L67.104,40.0083784 Z" id="Shape" fill="#232F3E"></path>
                        <path d="M78.704,16.4322973 L60.2,16.4322973 L60.2,13.3148649 C62.184,12.677027 63.536,10.8352703 63.544,8.75432432 L63.544,1.28364865 C63.536,0.574054054 62.96,0 62.248,0 L62.24,0 L19.912,0 C19.2,0 18.624,0.574054054 18.624,1.28364865 L18.624,8.75432432 C18.624,10.9787838 20.152,12.9082432 22.328,13.4264865 L22.328,22.6432432 C22.328,23.3528378 22.904,23.9268919 23.616,23.9268919 C24.328,23.9268919 24.904,23.3528378 24.904,22.6432432 L24.904,13.3148649 C25.696,13.0597297 26.408,12.5972973 26.976,11.9833784 C28.768,13.9287838 31.8,14.0563514 33.744,12.2704054 C33.848,12.1827027 33.944,12.0790541 34.032,11.9833784 C35.824,13.9287838 38.856,14.0563514 40.8,12.2704054 C40.904,12.1827027 41,12.0790541 41.088,11.9833784 C42.88,13.9287838 45.912,14.0563514 47.856,12.2704054 C47.96,12.1827027 48.056,12.0790541 48.144,11.9833784 C49.936,13.9287838 52.968,14.0563514 54.912,12.2704054 C55.016,12.1827027 55.112,12.0790541 55.2,11.9833784 C55.856,12.685 56.704,13.1793243 57.64,13.3945946 L57.64,16.4322973 L36.384,16.4322973 C35.672,16.4322973 35.096,17.0063514 35.096,17.7159459 L35.096,25.1866216 C35.096,27.4190541 36.64,29.3564865 38.824,29.8587838 L38.824,34.0127027 L35.712,34.0127027 C35,34.0127027 34.424,34.5867568 34.424,35.2963514 C34.424,36.0059459 35,36.58 35.712,36.58 L38.824,36.58 L38.824,51.7286486 C38.824,52.4382432 39.4,53.0122973 40.112,53.0122973 L75.384,53.0122973 C76.096,53.0122973 76.672,52.4382432 76.672,51.7286486 L76.672,29.7232432 C78.648,29.0933784 79.992,27.2595946 80,25.1866216 L80,17.7159459 C80,17.0063514 79.424,16.4322973 78.704,16.4322973 C78.712,16.4322973 78.704,16.4322973 78.704,16.4322973 Z M23.44,10.9867568 C22.2,10.9867568 21.2,9.99013514 21.2,8.75432432 L21.2,8.75432432 L21.2,2.5672973 L25.68,2.5672973 L25.68,8.75432432 C25.68,9.99013514 24.68,10.9867568 23.44,10.9867568 Z M30.496,10.9867568 C29.256,10.9867568 28.256,9.99013514 28.256,8.75432432 L28.256,8.75432432 L28.256,2.5672973 L32.736,2.5672973 L32.736,8.75432432 C32.744,9.99013514 31.736,10.9867568 30.496,10.9867568 L30.496,10.9867568 Z M37.56,10.9867568 C36.32,10.9867568 35.32,9.99013514 35.32,8.75432432 L35.32,8.75432432 L35.32,2.5672973 L39.8,2.5672973 L39.8,8.75432432 C39.8,9.99013514 38.792,10.9867568 37.56,10.9867568 L37.552,10.9867568 L37.56,10.9867568 Z M44.616,10.9867568 C43.376,10.9867568 42.376,9.99013514 42.376,8.75432432 L42.376,8.75432432 L42.376,2.5672973 L46.856,2.5672973 L46.856,8.75432432 C46.856,9.99013514 45.856,10.9867568 44.616,10.9867568 L44.616,10.9867568 L44.616,10.9867568 Z M51.672,10.9867568 C50.432,10.9867568 49.432,9.99013514 49.432,8.75432432 L49.432,8.75432432 L49.432,2.5672973 L53.912,2.5672973 L53.912,8.75432432 C53.912,9.99013514 52.912,10.9867568 51.672,10.9867568 C51.664,10.9867568 51.664,10.9867568 51.656,10.9867568 L51.672,10.9867568 Z M56.488,8.75432432 L56.488,2.5672973 L60.96,2.5672973 L60.96,8.75432432 C60.96,9.99013514 59.96,10.9867568 58.72,10.9867568 C57.48,10.9867568 56.48,9.99013514 56.488,8.75432432 L56.488,8.75432432 Z M77.432,25.1866216 C77.424,26.3347297 76.536,27.2914865 75.376,27.3871622 L75.176,27.3871622 C73.936,27.3871622 72.936,26.3905405 72.936,25.1547297 L72.936,25.1547297 L72.936,18.9995946 L77.416,18.9995946 L77.432,25.1866216 Z M37.688,25.1866216 L37.688,18.9995946 L42.168,18.9995946 L42.168,25.1866216 C42.16,26.3427027 41.264,27.2994595 40.104,27.3871622 L39.904,27.3871622 C38.68,27.3871622 37.68,26.4064865 37.664,25.1866216 L37.688,25.1866216 Z M49.216,25.1866216 C49.216,26.4224324 48.216,27.4190541 46.976,27.4190541 C45.736,27.4190541 44.736,26.4224324 44.736,25.1866216 L44.736,18.9995946 L49.2,18.9995946 L49.216,25.1866216 Z M51.792,18.9995946 L56.272,18.9995946 L56.272,25.1866216 C56.272,26.4224324 55.272,27.4190541 54.032,27.4190541 C52.792,27.4190541 51.792,26.4224324 51.792,25.1866216 L51.792,18.9995946 Z M63.328,25.1866216 C63.328,26.4224324 62.328,27.4190541 61.088,27.4190541 C59.848,27.4190541 58.848,26.4224324 58.848,25.1866216 L58.848,18.9995946 L63.328,18.9995946 L63.328,25.1866216 Z M65.904,18.9995946 L70.384,18.9995946 L70.384,25.1866216 C70.384,26.4224324 69.384,27.4190541 68.144,27.4190541 C66.904,27.4190541 65.904,26.4224324 65.904,25.1866216 L65.904,18.9995946 Z M48.384,50.437027 L48.384,35.4239189 L54.272,35.4239189 L54.272,50.437027 L48.384,50.437027 Z M56.848,50.437027 L56.848,34.1801351 C56.848,33.4705405 56.272,32.8964865 55.56,32.8964865 L47.096,32.8964865 C46.384,32.8964865 45.808,33.4705405 45.808,34.1801351 L45.808,50.437027 L41.392,50.437027 L41.392,29.7391892 C42.176,29.4840541 42.88,29.0375676 43.432,28.4395946 C45.224,30.385 48.256,30.5125676 50.2,28.7266216 C50.304,28.6389189 50.4,28.5352703 50.488,28.4395946 C52.28,30.385 55.312,30.5125676 57.256,28.7266216 C57.36,28.6389189 57.456,28.5352703 57.544,28.4395946 C59.344,30.385 62.376,30.5045946 64.328,28.7106757 C64.424,28.622973 64.512,28.5272973 64.6,28.4395946 C66.392,30.385 69.424,30.5125676 71.368,28.7266216 C71.472,28.6389189 71.568,28.5352703 71.656,28.4395946 C72.312,29.1412162 73.16,29.6355405 74.096,29.8508108 L74.096,50.3891892 L56.848,50.437027 Z" id="Shape" fill="#232F3E"></path>
                        <path d="M16.56,25.082973 C7.416,25.082973 0,32.4739189 0,41.587027 C0,50.7001351 7.416,58.0910811 16.56,58.0910811 C25.704,58.0910811 33.12,50.7001351 33.12,41.587027 L33.12,41.587027 C33.12,32.4739189 25.704,25.0909459 16.56,25.082973 Z M16.56,55.5317568 C8.832,55.5317568 2.576,49.2889189 2.576,41.595 C2.576,33.9010811 8.84,27.6502703 16.56,27.6502703 C24.28,27.6502703 30.544,33.8931081 30.544,41.587027 L30.544,41.587027 C30.544,49.2809459 24.288,55.5237838 16.56,55.5317568 Z" id="Shape" fill="#232F3E"></path>
                    </g>
                </g>
            </g>
        </g>
    </g>
</svg>