<?xml version="1.0" encoding="utf-8"?>
<!-- Generator: Adobe Illustrator 22.0.1, SVG Export Plug-In . SVG Version: 6.00 Build 0)  -->
<svg version="1.1" id="Layer_2_1_" xmlns="http://www.w3.org/2000/svg" xmlns:xlink="http://www.w3.org/1999/xlink" x="0px" y="0px"
	 viewBox="0 0 215.9 635.1" style="enable-background:new 0 0 215.9 635.1;" xml:space="preserve">
<style type="text/css">
	.st0{fill:#DDE8E8;}
	.st1{fill:#A6DCE7;}
	.st2{fill:#F7C745;}
	.st3{fill:#59B0BF;}
	.st4{fill:#C63838;}
	.st5{fill:#15383F;}
	.st6{fill:#FFFFFF;}
	.st7{fill:#478455;}
	.st8{fill:#345B3B;}
	.st9{fill:#FF9797;}
	.st10{fill:#EF514D;}
	.st11{fill:none;stroke:#15383F;stroke-width:2;stroke-linecap:round;stroke-miterlimit:10;}
	.st12{fill:#A32424;}
	.st13{fill:#EDAB26;}
	.st14{fill:#184B54;}
	.st15{fill:url(#SVGID_1_);}
</style>
<title>43_Customer_Service</title>
<ellipse class="st0" cx="113.4" cy="589.2" rx="102.5" ry="45.9"/>
<polygon class="st1" points="67.3,157.5 39.2,128.7 80.4,107.9 114,107.3 151.7,128.6 139.4,129.8 "/>
<path class="st2" d="M190.1,304.7c-2.4-1-5.2-0.4-7.1,1.3c-8.3,7.9-9.2,23.5-1.5,37.3c6.5,11.8,17.5,18.9,27.4,19
	c3.5-0.1,6.2-2.9,6.2-6.4c0-1-0.3-2.1-0.8-3l-14.8-26.6c-1.1-2-0.4-4.6,1.6-5.7c1.1-0.6,2.4-0.7,3.6-0.3l1,0.4
	c2.5,0.9,5.3-0.4,6.2-2.9c0.1-0.4,0.2-0.8,0.3-1.2c0.2-2.2-1.2-4.3-3.3-5L190.1,304.7z"/>
<path class="st2" d="M156.9,226.3l2.6-84.4c-0.4-7.8-7.4-13.8-15.6-13.2l0,0c-8.2,0.5-14.6,7.3-14.3,15.1l4.2,87.7l43.6,88.6
	l12.6-12.4L156.9,226.3z"/>
<path class="st1" d="M158.1,225.9l2-84.9c-0.4-8.3-7.9-14.6-16.6-14.1l0,0c-8.7,0.5-15.6,7.8-15.2,16.1l4.1,88.4l39.2,82.2
	c0,0,15,0,17-14.2L158.1,225.9z"/>
<path class="st1" d="M158.1,225.9l2-84.9c-0.4-8.3-7.9-14.6-16.6-14.1l0,0c-8.7,0.5-15.6,7.8-15.2,16.1l4.1,88.4l39.2,82.2
	c0,0,15,0,17-14.2L158.1,225.9z"/>
<path class="st3" d="M130.2,185.3l2.2,46.2l39.2,82.2c1.8-0.1,3.6-0.4,5.4-0.9C130.3,213.3,147.3,191,147.3,191L130.2,185.3z"/>
<path class="st4" d="M121.6,540l-2.6,8.5c-0.1,2.2,1.1,4.2,3.1,5l47.9,22.3c2.8,1.3,6,1,8.5-0.8l10.3-7.4c2.2-1.5,2.9-4.5,1.4-6.7
	c-0.5-0.7-1.2-1.3-2-1.7l-41.3-22.8l-1.7-22.3l-22.4-0.8L121.6,540z"/>
<path class="st5" d="M188.8,567.8l-10.3,7.4c-2.5,1.7-5.8,2-8.5,0.8L122,553.5c-1.1-0.5-2.1-1.4-2.6-2.5l-0.3,3.6
	c-0.1,2.2,1.1,4.2,3.1,5l47.9,22.4c2.8,1.3,6,1,8.5-0.8l10.3-7.4c2.2-1.4,2.8-4.4,1.4-6.6c-0.1-0.2-0.3-0.4-0.4-0.5
	C189.6,567.1,189.2,567.5,188.8,567.8z"/>
<path class="st6" d="M147.2,551.5c-1,0-1.7-0.8-1.7-1.8c0-0.3,0.1-0.6,0.2-0.8c5.1-9,13.2-8.7,13.6-8.7c1,0.1,1.6,1,1.5,1.9
	c-0.1,0.9-0.8,1.5-1.7,1.5c-0.3,0-6.4-0.1-10.4,6.9C148.4,551.2,147.8,551.6,147.2,551.5z"/>
<path class="st6" d="M154.4,555.4c-1,0-1.7-0.8-1.7-1.8c0-0.3,0.1-0.6,0.2-0.8c5.2-9,13.2-8.7,13.6-8.7c1,0,1.7,0.9,1.6,1.8
	c-0.1,0.9-0.9,1.7-1.8,1.6c-0.3,0-6.4-0.1-10.4,6.9C155.6,555.1,155,555.4,154.4,555.4z"/>
<path class="st6" d="M162,559.9c-1,0-1.7-0.8-1.7-1.8c0-0.3,0.1-0.6,0.2-0.8c5.2-9,13.2-8.7,13.6-8.7c1,0,1.7,0.9,1.6,1.8
	c-0.1,0.9-0.9,1.7-1.8,1.6c-0.3,0-6.4-0.1-10.4,6.9C163.3,559.6,162.7,559.9,162,559.9z"/>
<path class="st7" d="M148.3,534.7c0,0-14.6,7.7-29.2,1.5L91.5,310.7l33.4-40.3l20.2,8.7L148.3,534.7z"/>
<path class="st4" d="M48.1,574.9l-3.4,9.5c-0.3,2.4,1,4.8,3.2,5.8l53.3,28c3.1,1.6,6.8,1.5,9.8-0.4l12.1-7.8c2.6-1.6,3.5-5,1.9-7.6
	c-0.5-0.9-1.3-1.6-2.2-2.1l-45.7-28.1l-0.8-25.5l-25.4-2.1L48.1,574.9z"/>
<path class="st5" d="M123,610.1l-12.1,7.8c-3,1.8-6.7,2-9.8,0.4l-53.3-28c-1.3-0.6-2.3-1.7-2.8-3l-0.6,4.1c-0.3,2.4,1,4.8,3.2,5.8
	l53.3,28c3.1,1.6,6.8,1.5,9.8-0.4l12.1-7.8c2.6-1.5,3.5-4.9,1.9-7.4c-0.1-0.2-0.3-0.4-0.4-0.6C124,609.4,123.6,609.8,123,610.1z"/>
<path class="st6" d="M76.7,589.2c-0.9,0-1.7-0.8-1.7-1.7c0-0.3,0.1-0.6,0.3-0.9c6.3-9.8,15.3-9.1,15.7-9c0.9,0.1,1.6,1,1.5,2
	c-0.1,0.9-0.9,1.5-1.8,1.5c-0.3,0-7.4-0.5-12.4,7.4C77.9,588.9,77.3,589.2,76.7,589.2z"/>
<path class="st6" d="M84.7,593.9c-0.9,0-1.7-0.8-1.7-1.7c0-0.3,0.1-0.6,0.3-0.9c6.3-9.8,15.3-9.1,15.7-9c0.9,0.1,1.6,1,1.5,2
	c-0.1,0.9-0.9,1.5-1.8,1.5c-0.3,0-7.4-0.5-12.4,7.4C85.9,593.7,85.3,594,84.7,593.9z"/>
<path class="st6" d="M93.2,599.5c-0.9,0-1.7-0.8-1.7-1.7c0-0.3,0.1-0.6,0.3-0.9c6.3-9.8,15.3-9.1,15.7-9c0.9,0.1,1.6,1,1.5,2
	c-0.1,0.9-0.9,1.5-1.8,1.5c-0.3,0-7.4-0.5-12.4,7.4C94.3,599.3,93.8,599.6,93.2,599.5z"/>
<path class="st8" d="M42.4,288.3l0.1,14.2c0.1,7.7,1,15.4,2.7,22.9l1.7,7.5c1.2,5.1,1.8,10.3,1.7,15.6L47.1,569
	c0,0,15.6,9.3,31.6,1.6l27.8-273.4L82.1,272L42.4,288.3z"/>
<polygon class="st8" points="92.5,293.2 86.8,328.1 100.2,340 138.5,306.2 "/>
<path class="st1" d="M114,107.3l-13.8-2.9l0,0c-19.9,1.1-41.4,17.6-54.8,46.9l-3.1,17.4c0,0,16.5,30.3,8.8,61.7
	c-4.5,18.4-12.5,45.6-12.5,66.3v8.3c0,0,75.1,28.6,109-6.2c0,0-0.8-19.8-3.3-43.7c-2.3-22.7-3.9-43.9,0-56.1
	c2.1-6.7,2.3-5.6,5.9-15.3c5.2-13.9-3.4-31.1-10.7-41.4c-5.2-7.5-6-23.5-6-23.5L114,107.3z"/>
<path class="st3" d="M88.8,201.9c-0.4-5.8-12.1-4-22.4-8.3c-7.8-3.3-8.2-13.5-8.9-17.6c-1.4-8.2-3.7-28.6-3.7-28.6
	c-2.5-0.2-5.1,0.1-7.5,1.1c-0.3,0.9-0.6,1.8-0.9,2.7l-3.1,17.4c0,0,16.5,30.3,8.8,61.7c-4.5,18.4-12.5,45.6-12.5,66.3v8.3
	c0,0,22.5,8.5,32.2,8.5c0,0-12-40.3-3.1-84.7c0,0,2.3-13.8,8.9-18.5S89.1,206.5,88.8,201.9z"/>
<path class="st2" d="M109.5,146.2c-10.9,2-28.4-11.6-32-26.8c-2-8.4,6-17,16.9-19s20.9,5.8,23.6,17.1
	C120,125.9,120.4,144.2,109.5,146.2z"/>
<path class="st2" d="M36.3,250.9l23.2-104.1c1.2-8.2-4.5-15.7-12.7-16.9l0,0c-8.2-1.2-15.7,4.5-16.9,12.7L14.5,251.7l1.6,101.1
	l14.8-10.2L36.3,250.9z"/>
<path class="st1" d="M38.1,251.1L60.2,146c1.2-8.7-4.8-16.7-13.5-18l0,0c-8.7-1.2-16.7,4.8-18,13.5l-18,107.9l3.7,86.8
	c0,0,4.2,5.5,18.5,1.4L38.1,251.1z"/>
<path class="st2" d="M33.6,344.5c-1.2-2.3-3.6-3.8-6.2-3.8C16,340.9,4.8,351.8,1.2,367.2c-3.1,13.1,0.1,25.8,7.4,32.5
	c2.6,2.3,6.6,2,8.9-0.6c0.7-0.8,1.2-1.7,1.4-2.8l7-29.6c0.5-2.3,2.8-3.7,5.1-3.1c1.2,0.3,2.2,1.1,2.8,2.2l0.5,1
	c1.2,2.4,4.1,3.3,6.5,2.1c0.4-0.2,0.7-0.4,1-0.7c1.6-1.5,2-3.9,0.9-5.9L33.6,344.5z"/>
<path class="st5" d="M141.4,50c-1,4-4.3,4.5-7.5,1s-4.9-9.6-3.9-13.6s4.3-4.5,7.5-1S142.3,46,141.4,50z"/>
<path class="st9" d="M136.1,31.8c-3.6-4-7.4-5.2-10.1-3.7l-7.9,3.6l0,0c-1.8,0.8-3.3,2.7-4,5.7c-1.8,7.4,1.4,18.6,7.2,25
	c3.5,3.9,7.1,5.1,9.8,3.8l0,0l8.1-3.7l0,0c1.8-0.8,3.3-2.7,4-5.7C145.1,49.4,142,38.2,136.1,31.8z"/>
<path class="st4" d="M136.1,61c-2,8-8.6,8.9-14.9,2s-9.7-19-7.8-27s8.6-8.9,14.9-2C134.6,40.9,138.1,53,136.1,61z"/>
<path class="st10" d="M133.7,60.3c-1.8,7.2-7.7,8-13.3,1.8s-8.7-17-7-24.2s7.7-8,13.3-1.8C132.3,42.2,135.5,53.1,133.7,60.3z"/>
<path class="st11" d="M139.5,57.3l11,12.6c3.8,4.4,2.9,10.8-1.9,12.9l-7.1,3.1"/>
<path class="st10" d="M141.8,82.6c-0.9-0.9-1.7-1.2-2.4-0.9l-6.7,2.9l0,0c-0.5,0.3-0.9,0.8-1,1.4c-0.3,2.1,0.3,4.3,1.7,5.9
	c0.8,0.9,1.7,1.2,2.3,0.9l0,0l6.7-3l0,0c0.5-0.3,0.9-0.8,1-1.4C143.8,86.4,143.2,84.3,141.8,82.6z"/>
<path class="st12" d="M136.7,91.5c-0.4,1.8-1.9,1.9-3.2,0.4c-1.4-1.6-2-3.8-1.7-5.9c0.4-1.8,1.9-1.9,3.2-0.4
	C136.5,87.3,137.1,89.4,136.7,91.5z"/>
<path class="st12" d="M137.7,82.5c0.7,0.1,1.3,0.5,1.7,1c0.3,0.3,0.6,0.7,0.8,1.1c0.1,0.1,0.1,0.2,0.2,0.2c0.1,0,0.1,0,0.2,0
	c0.1-0.1,0.2-0.3,0.1-0.4c0,0,0,0,0,0c-0.3-0.4-0.5-0.8-0.9-1.2c-0.4-0.4-0.8-0.7-1.2-1L137.7,82.5z"/>
<path class="st12" d="M138,84.2c0.3,0.3,0.6,0.7,0.8,1.1c0.1,0.1,0.1,0.2,0.2,0.2c0.1,0,0.1,0,0.2,0c0.1-0.1,0.2-0.3,0.1-0.4
	c0,0,0,0,0,0c-0.3-0.4-0.5-0.8-0.9-1.2c-0.3-0.4-0.8-0.7-1.2-1l-0.8,0.4C136.9,83.3,137.5,83.7,138,84.2z"/>
<path class="st12" d="M136.5,84.8c0.3,0.3,0.6,0.7,0.8,1.1c0.1,0.1,0.1,0.2,0.2,0.2c0.1,0,0.1,0,0.2,0c0.1-0.1,0.2-0.3,0.1-0.4
	c0,0,0,0,0,0c-0.3-0.4-0.5-0.8-0.9-1.2c-0.3-0.4-0.8-0.7-1.2-1l-0.8,0.4C135.5,83.9,136.1,84.3,136.5,84.8z"/>
<path class="st5" d="M85.1,14.8c0,0,0.7-14.8-14.9-14.8S44.3,12.2,45.4,29.2s3.5,32.3-4.5,32.8c-2.6,0.4-5-1.4-5.4-4
	c0,0-4.1,12.7,9.5,15.4s32.5-9.8,28.9-41.5L85.1,14.8z"/>
<rect x="80.4" y="83.4" class="st2" width="33.6" height="37"/>
<path class="st2" d="M109.5,146.2c-10.9,2-28.4-11.6-32-26.8c-2-8.4,6-17,16.9-19s20.9,5.8,23.6,17.1
	C120,125.9,120.4,144.2,109.5,146.2z"/>
<rect x="80.4" y="83.4" class="st2" width="33.6" height="37"/>
<path class="st2" d="M100.2,9.8C86,11.4,75.6,24,75.6,38.3v34.2c0.1,15.2,12.3,27.6,27.5,27.8l0,0h0.3c15.4,0,27.8-12.5,27.9-27.8
	V37.5c0-15.4-12.6-27.9-28-27.8C102.3,9.6,101.3,9.7,100.2,9.8z"/>
<path class="st13" d="M114.1,83.4H80.4V97c4.9,4,11,6.3,17.3,6.4l0,0h0.3c5.7,0,11.3-1.8,16-5.1L114.1,83.4z"/>
<path class="st2" d="M100.2,9.8C86,11.4,75.6,24,75.6,38.3v34.2c0.1,15.2,12.3,27.6,27.5,27.8l0,0h0.3c15.4,0,27.8-12.5,27.9-27.8
	V37.5c0-15.4-12.6-27.9-28-27.8C102.3,9.6,101.3,9.7,100.2,9.8z"/>
<path class="st4" d="M75.8,75.4c0,0.1,0,0.2,0.1,0.4C75.8,75.7,75.8,75.5,75.8,75.4z"/>
<ellipse class="st5" cx="103.5" cy="54.9" rx="2.6" ry="3"/>
<ellipse class="st5" cx="123.9" cy="54.9" rx="2.6" ry="3"/>
<path class="st11" d="M98.2,46.2c0.9-0.8,1.9-1.4,3.1-1.8c1.6-0.6,3.2-0.7,4.9-0.3"/>
<path class="st11" d="M130.3,46.8c-0.9-0.8-1.9-1.4-3.1-1.8c-1.6-0.6-3.2-0.7-4.9-0.3"/>
<path class="st13" d="M109.6,66.1c0,1.7,2.5,1.8,3.4,2.9s0.9,2.2,2.5,2.2s1.6-1.4,2.6-2.5s2.4-0.8,2.4-2.5c-1.6,0.6-3.4,0.9-5.1,0.9
	C113.4,66.9,111.5,66.5,109.6,66.1z"/>
<path class="st5" d="M119.5,78.3c-0.4,4.5-4.4,7.8-8.9,7.4c-4.5-0.4-7.8-4.4-7.4-8.9l0,0L119.5,78.3z"/>
<path class="st4" d="M107.1,80.5c-1.1,0-2.1,0.3-3,0.8c1.7,3.4,5.6,5.2,9.3,4.2C112.7,82.6,110.1,80.5,107.1,80.5z"/>
<path class="st14" d="M75.6,68.4c-0.5,5.2,0.2,7,0.2,7C58.7,68,53.8,25.4,77,22l9.4,6.5c1.8,16.6-5.9,26.9-5.9,26.9h-5.3L75.6,68.4z
	"/>
<path class="st14" d="M77,22.1c0,0,1.4-15.8,16.3-18.6c2.2-0.4,10.7-2.6,20.4,5.1c0,0,14.2-6.5,21.2,5c2.6,4.2,1.7,9.6,0.3,12.5
	c-1.3,2.6-3.7,4.6-6.5,5.3c-19.9,5-42.3-2.8-42.3-2.8L77,22.1z"/>
<path class="st13" d="M84.1,58.8l-8.5,5.4v8.4c0,5.6,1.7,11,4.9,15.6c9.3-8.1,9.4-24.7,9.4-24.7L84.1,58.8z"/>
<path class="st4" d="M90.1,69.1c-1.9,7.7-8.3,8.6-14.3,1.9S66.4,52.8,68.2,45s8.3-8.6,14.3-1.9S92,61.4,90.1,69.1z"/>
<path class="st9" d="M80.3,45.2c-3.5-3.9-7.1-5-9.8-3.5L63,45.1l0,0c-1.8,0.8-3.2,2.6-3.9,5.5c-1.8,7.1,1.4,17.9,6.9,24.1
	c3.4,3.7,6.9,4.9,9.5,3.7l0,0l7.9-3.6l0,0c1.8-0.8,3.2-2.6,3.9-5.5C89,62.1,86,51.3,80.3,45.2z"/>
<path class="st10" d="M79.3,72.9c-1.8,7.1-7.7,8-13.3,1.8s-8.7-16.9-6.9-24.1s7.7-8,13.3-1.8S81,65.8,79.3,72.9z"/>
<path class="st4" d="M68.6,55c-1.9-2.1-3.9-2.7-5.3-1.9l-3.2,1.5l0,0c-1.1,0.6-1.9,1.7-2.1,3c-1,3.9,0.7,9.8,3.8,13.1
	c1.8,2,3.7,2.7,5.2,2l0,0l3.3-1.6l0,0c1.1-0.6,1.9-1.7,2.1-3C73.3,64.2,71.6,58.3,68.6,55z"/>
<path class="st12" d="M69,69.7c-1,3.9-4.2,4.3-7.2,1S57,61.4,58,57.5s4.2-4.3,7.2-1S69.9,65.8,69,69.7z"/>
<path class="st9" d="M134.4,26.1c-0.1-8.8-5.8-15.3-14.3-17.5c-4.5-1.1-9.2-1.1-13.7,0C91.1,12,78.7,27.5,78.8,40.5L78.8,51l2.4-0.5
	v-9.4c0.2-7.2,2.9-14.2,7.6-19.6c5-5.4,11.6-9.2,18.8-10.9c4.1-1,8.4-1,12.5,0c3.3,0.8,6.3,2.6,8.5,5.1c2.2,2.7,3.4,6.2,3.4,9.7
	L134.4,26.1z"/>
<linearGradient id="SVGID_1_" gradientUnits="userSpaceOnUse" x1="40.0203" y1="755.8918" x2="26.1003" y2="731.7818" gradientTransform="matrix(1.14 0.3 -1.000000e-02 -0.99 70.0617 741.9681)">
	<stop  offset="1.000000e-02" style="stop-color:#C63838"/>
	<stop  offset="1" style="stop-color:#A32424"/>
</linearGradient>
<path class="st15" d="M127.6,12.1L127.6,12.1c-4.4-3.2-9.8-4.7-15.2-4.4l0,0c-2,0.1-4,0.3-6,0.8c-15.3,3.4-27.8,18.9-27.7,31.9
	L78.9,51l-10.7-8c0,0-0.1-4.6-0.1-7.1c0.4-9.6,4.4-21.8,19.8-30.5c13.6-7.7,28.4-1.6,28.4-1.6l0,0C120.9,5.4,124.8,8.3,127.6,12.1z"
	/>
<path class="st9" d="M78.5,48.4c-3.7-3.8-7.4-5.6-10.4-5.5v1.5l9.4,7.2l3.6-0.8v-2.8l-2.4,0.6L78.5,48.4z"/>
<path class="st2" d="M129.4,27.2l-4.6,3.8l6.5,5C131.1,33,130.5,30,129.4,27.2z"/>
<path class="st14" d="M98.6,18.8c0,0,15.9-15.9,29.5-12.6s17,25.2-6,27.3c-20.5,1.9-35.6-5-35.6-5L98.6,18.8z"/>
</svg>
