<?xml version="1.0" encoding="utf-8"?>
<!-- Generator: Adobe Illustrator 22.0.1, SVG Export Plug-In . SVG Version: 6.00 Build 0)  -->
<svg version="1.1" id="Layer_2_1_" xmlns="http://www.w3.org/2000/svg" xmlns:xlink="http://www.w3.org/1999/xlink" x="0px" y="0px"
	 viewBox="0 0 712 681.7" style="enable-background:new 0 0 712 681.7;" xml:space="preserve">
<style type="text/css">
	.st0{fill:#DDE8E8;}
	.st1{fill:#1A1A1A;}
	.st2{fill:#484E4F;}
	.st3{fill:#363A3A;}
	.st4{fill:#F7C745;}
	.st5{fill:#EDAB26;}
	.st6{fill:#EA831C;}
	.st7{fill:#FFDF8F;}
	.st8{fill:#59B0BF;}
	.st9{fill:#15383F;}
	.st10{fill:none;stroke:#3B8A9D;stroke-width:2;stroke-linecap:round;stroke-linejoin:round;}
	.st11{fill:#A6DCE7;}
	.st12{fill:#DCF2F4;}
	.st13{fill:#FFFFFF;}
	.st14{fill:url(#SVGID_1_);}
	.st15{fill:#3B8A9D;}
	.st16{fill:none;}
	.st17{fill:url(#SVGID_2_);}
	.st18{clip-path:url(#SVGID_4_);}
	.st19{fill:none;stroke:#15383F;stroke-width:2;stroke-miterlimit:10;}
	.st20{fill:none;stroke:#DCF2F4;stroke-width:2;stroke-miterlimit:10;}
	.st21{fill:none;stroke:#DCF2F4;stroke-width:2;stroke-linecap:round;stroke-linejoin:round;}
	.st22{fill:url(#SVGID_5_);}
	.st23{fill:url(#SVGID_6_);}
</style>
<title>05_Delivery_Trucks</title>
<path class="st0" d="M2.6,494.8c-2.4,1.4-3.3,4.6-1.9,7c0.4,0.8,1.1,1.4,1.9,1.9L112,566.8c3.2,1.8,7.1,1.8,10.2,0l149.3-86.2
	l-122.4-70.4L2.6,494.8z"/>
<path class="st0" d="M628.6,265.7l-109.4-63.3c-3.2-1.8-7.1-1.8-10.2,0L157.8,405.2l122.4,70.5l348.4-201.1c2.4-1.4,3.3-4.5,1.9-7
	C630,266.8,629.4,266.2,628.6,265.7z"/>
<path class="st1" d="M370.3,414L352,403.4l0,0c-8.8-5.1-10.7-20.7-4.2-35.9c6.8-16,20.4-25.5,30.3-21.2l17.4,10.1v43.2L370.3,414z"
	/>
<ellipse transform="matrix(0.3923 -0.9198 0.9198 0.3923 -121.5765 586.4977)" class="st2" cx="383.1" cy="385.3" rx="31.4" ry="19.6"/>
<path class="st3" d="M395.4,356.4c-9.9-4.2-23.5,5.3-30.3,21.2c-2.7,6.2-4,12.9-3.8,19.7l43.4-25.1
	C404.1,364.6,400.9,358.7,395.4,356.4z"/>
<path class="st4" d="M377,403.8c-0.6,0-1.1-0.1-1.7-0.3c-1.9-0.8-3.2-3.2-3.7-6.6c-0.7-4.5,0.2-10.1,2.4-15.4
	c4-9.5,10.8-14.6,15.1-14.6c0.6,0,1.1,0.1,1.7,0.3c1.9,0.8,3.2,3.2,3.7,6.6c0.7,4.5-0.2,10.1-2.4,15.4
	C388.1,398.6,381.3,403.8,377,403.8z"/>
<path class="st5" d="M389.2,366.8c-4.3,0-11.1,5.1-15.1,14.6c-1,2.5-1.8,5-2.3,7.6l23-13.3c0-0.7-0.1-1.3-0.2-2
	c-0.5-3.4-1.9-5.8-3.7-6.6C390.3,366.9,389.8,366.8,389.2,366.8z"/>
<path class="st1" d="M394.6,373.7c-0.5-3.4-1.9-5.8-3.7-6.6c-0.5-0.2-1-0.3-1.6-0.3c1.4,1.6,2.2,3.6,2.4,5.7
	c0.7,4.5-0.2,10.1-2.4,15.4c-4,9.5-10.8,14.6-15.1,14.6H374c0.4,0.4,0.8,0.7,1.3,0.9c0.5,0.2,1.1,0.3,1.7,0.3
	c4.3,0,11.1-5.1,15.1-14.6C394.4,383.8,395.3,378.3,394.6,373.7z"/>
<path class="st1" d="M320.6,442.1l-18.4-10.6l0,0c-8.8-5.1-10.7-20.7-4.2-35.9c6.8-16,20.4-25.5,30.3-21.2l17.4,10.1v43.2
	L320.6,442.1z"/>
<ellipse transform="matrix(0.3923 -0.9198 0.9198 0.3923 -177.6664 557.7947)" class="st2" cx="333.3" cy="413.4" rx="31.4" ry="19.6"/>
<path class="st3" d="M345.7,384.5c-9.9-4.2-23.5,5.3-30.3,21.2c-2.7,6.2-4,12.9-3.8,19.7l43.4-25.1
	C354.3,392.7,351.1,386.8,345.7,384.5z"/>
<path class="st4" d="M327.3,431.8c-0.6,0-1.1-0.1-1.7-0.3c-1.9-0.8-3.2-3.2-3.7-6.6c-0.7-4.5,0.2-10.1,2.4-15.4
	c4-9.5,10.8-14.6,15.1-14.6c0.6,0,1.1,0.1,1.7,0.3c1.9,0.8,3.2,3.2,3.7,6.6c0.7,4.5-0.2,10.1-2.4,15.4
	C338.3,426.7,331.6,431.8,327.3,431.8z"/>
<path class="st5" d="M339.4,394.9c-4.3,0-11.1,5.1-15.1,14.6c-1,2.5-1.8,5-2.3,7.7l23-13.3c0-0.7-0.1-1.3-0.2-2
	c-0.5-3.4-1.9-5.8-3.7-6.6C340.5,395,340,394.9,339.4,394.9z"/>
<path class="st1" d="M344.8,401.8c-0.5-3.4-1.9-5.8-3.7-6.6c-0.5-0.2-1-0.3-1.6-0.3c1.4,1.6,2.2,3.6,2.4,5.7
	c0.7,4.5-0.2,10.1-2.4,15.4c-4,9.5-10.8,14.6-15.1,14.6h-0.1c0.4,0.4,0.8,0.7,1.3,0.9c0.5,0.2,1.1,0.3,1.7,0.3
	c4.3,0,11.1-5.1,15.1-14.6C344.6,412,345.5,406.4,344.8,401.8z"/>
<path class="st1" d="M570.3,296.2l-18.4-10.6l0,0c-8.8-5.1-10.7-20.7-4.2-35.9c6.8-16,20.4-25.5,30.3-21.2l17.4,10.1v43.2
	L570.3,296.2z"/>
<ellipse transform="matrix(0.3923 -0.9198 0.9198 0.3923 108.2546 698.8788)" class="st2" cx="583.1" cy="267.5" rx="31.4" ry="19.6"/>
<path class="st3" d="M595.4,238.6c-9.9-4.2-23.5,5.3-30.3,21.2c-2.7,6.2-4,12.9-3.8,19.7l43.4-25.1
	C604.1,246.9,600.8,240.9,595.4,238.6z"/>
<path class="st4" d="M577,286c-0.6,0-1.1-0.1-1.7-0.3c-1.8-0.8-3.2-3.2-3.7-6.6c-0.7-4.5,0.2-10.1,2.4-15.4
	c4-9.5,10.8-14.6,15.1-14.6c0.6,0,1.1,0.1,1.7,0.3c1.8,0.8,3.2,3.2,3.7,6.6c0.7,4.5-0.2,10.1-2.4,15.4
	C588.1,280.8,581.3,286,577,286z"/>
<path class="st5" d="M589.2,249.1c-4.3,0-11.1,5.1-15.1,14.6c-1,2.5-1.8,5-2.3,7.7l23-13.3c0-0.7-0.1-1.3-0.2-2
	c-0.5-3.4-1.9-5.8-3.7-6.6C590.3,249.2,589.7,249,589.2,249.1z"/>
<path class="st1" d="M594.6,256c-0.5-3.4-1.9-5.8-3.7-6.6c-0.5-0.2-1-0.3-1.6-0.3c1.4,1.6,2.2,3.6,2.4,5.7
	c0.7,4.5-0.2,10.1-2.4,15.4c-4,9.5-10.8,14.6-15.1,14.6H574c0.4,0.4,0.8,0.7,1.3,0.9c0.5,0.2,1.1,0.3,1.7,0.3
	c4.3,0,11.1-5.1,15.1-14.6C594.4,266.1,595.3,260.5,594.6,256z"/>
<path class="st1" d="M520.5,324.9l-18.4-10.6l0,0c-8.8-5.1-10.7-20.7-4.2-35.9c6.8-16,20.4-25.5,30.3-21.2l17.4,10.1v43.2
	L520.5,324.9z"/>
<ellipse transform="matrix(0.3923 -0.9198 0.9198 0.3923 51.6121 670.5302)" class="st2" cx="533.3" cy="296.2" rx="31.4" ry="19.6"/>
<path class="st3" d="M545.6,267.3c-9.9-4.2-23.5,5.3-30.3,21.2c-2.7,6.2-4,12.9-3.8,19.7l43.4-25.1
	C554.3,275.6,551.1,269.6,545.6,267.3z"/>
<path class="st4" d="M527.2,314.7c-0.6,0-1.1-0.1-1.7-0.3c-1.8-0.8-3.2-3.2-3.7-6.6c-0.7-4.5,0.2-10.1,2.4-15.4
	c4-9.5,10.8-14.6,15.1-14.6c0.6,0,1.1,0.1,1.7,0.3c1.8,0.8,3.2,3.2,3.7,6.6c0.7,4.5-0.2,10.1-2.4,15.4
	C538.3,309.6,531.5,314.7,527.2,314.7z"/>
<path class="st5" d="M539.4,277.7c-4.3,0-11.1,5.1-15.1,14.6c-1,2.5-1.8,5-2.3,7.7l23-13.3c0-0.7-0.1-1.3-0.2-2
	c-0.5-3.4-1.9-5.8-3.7-6.6C540.5,277.9,540,277.7,539.4,277.7z"/>
<path class="st1" d="M544.8,284.7c-0.5-3.4-1.9-5.8-3.7-6.6c-0.5-0.2-1-0.3-1.6-0.3c1.4,1.6,2.2,3.6,2.4,5.7
	c0.7,4.5-0.2,10.1-2.4,15.4c-4,9.5-10.8,14.6-15.1,14.6h-0.1c0.4,0.4,0.8,0.7,1.3,0.9c0.5,0.2,1.1,0.3,1.7,0.3
	c4.3,0,11.1-5.1,15.1-14.6C544.6,294.8,545.5,289.2,544.8,284.7z"/>
<path class="st1" d="M145.2,542.9l-18.4-10.6l0,0c-8.8-5.1-10.7-20.7-4.2-35.9c6.8-16,20.4-25.5,30.3-21.2l17.4,10.1v43.2
	L145.2,542.9z"/>
<ellipse transform="matrix(0.3923 -0.9198 0.9198 0.3923 -376.989 457.741)" class="st2" cx="157.9" cy="514.2" rx="31.4" ry="19.6"/>
<path class="st3" d="M170.3,485.3c-9.9-4.2-23.5,5.3-30.3,21.2c-2.7,6.2-4,12.9-3.8,19.7l43.4-25.1
	C178.9,493.6,175.7,487.6,170.3,485.3z"/>
<path class="st4" d="M151.9,532.7c-0.6,0-1.1-0.1-1.7-0.3c-1.9-0.8-3.2-3.2-3.7-6.6c-0.7-4.5,0.2-10.1,2.4-15.4
	c4-9.5,10.8-14.6,15.1-14.6c0.6,0,1.1,0.1,1.7,0.3c1.9,0.8,3.2,3.2,3.7,6.6c0.7,4.5-0.2,10.1-2.4,15.4
	C162.9,527.6,156.2,532.7,151.9,532.7z"/>
<path class="st5" d="M164,495.7c-4.3,0-11.1,5.1-15.1,14.6c-1,2.5-1.8,5-2.3,7.7l23-13.3c0-0.7-0.1-1.3-0.2-2
	c-0.5-3.4-1.9-5.8-3.7-6.6C165.2,495.8,164.6,495.7,164,495.7z"/>
<path class="st1" d="M169.4,502.7c-0.5-3.4-1.9-5.8-3.7-6.6c-0.5-0.2-1-0.3-1.6-0.3c1.4,1.6,2.2,3.6,2.4,5.7
	c0.7,4.5-0.2,10.1-2.4,15.4c-4,9.5-10.8,14.6-15.1,14.6h-0.1c0.4,0.4,0.8,0.7,1.3,0.9c0.5,0.2,1.1,0.3,1.7,0.3
	c4.3,0,11.1-5.1,15.1-14.6C169.2,512.8,170.1,507.2,169.4,502.7z"/>
<polygon class="st6" points="278.7,432 278.7,261.1 169.2,197.9 169.2,368.8 "/>
<polygon class="st7" points="620.3,63.9 278.7,261.1 278.7,432 620.3,234.8 "/>
<polygon class="st4" points="288.6,266.8 613.8,79.3 613.8,227.3 288.6,414.8 "/>
<polygon class="st7" points="313.4,403 303.5,408.8 303.5,255.7 313.4,250 "/>
<polygon class="st5" points="306.8,256.3 303.5,258.2 303.5,406.2 306.8,404.3 "/>
<polygon class="st7" points="337,389.5 327.1,395.2 327.1,242.1 337,236.4 "/>
<polygon class="st5" points="330.4,242.7 327.1,244.7 327.1,392.7 330.4,390.7 "/>
<polygon class="st7" points="360.6,375.8 350.7,381.5 350.7,228.5 360.6,222.8 "/>
<polygon class="st5" points="354.1,229.1 350.7,231 350.7,379 354.1,377.1 "/>
<polygon class="st7" points="384.2,362.2 374.3,367.9 374.3,214.9 384.2,209.1 "/>
<polygon class="st5" points="377.7,215.5 374.3,217.4 374.3,365.4 377.7,363.5 "/>
<polygon class="st7" points="407.8,348.6 397.9,354.3 397.9,201.3 407.8,195.5 "/>
<polygon class="st5" points="401.3,201.8 397.9,203.8 397.9,351.8 401.3,349.8 "/>
<polygon class="st7" points="431.4,335 421.5,340.7 421.5,187.7 431.4,181.9 "/>
<polygon class="st5" points="424.9,188.3 421.5,190.2 421.5,338.2 424.9,336.2 "/>
<polygon class="st7" points="455,321.3 445.1,327.1 445.1,174 455,168.3 "/>
<polygon class="st5" points="448.5,174.6 445.1,176.6 445.1,324.5 448.5,322.6 "/>
<polygon class="st7" points="478.7,307.7 468.7,313.5 468.7,160.4 478.7,154.7 "/>
<polygon class="st5" points="472.1,161 468.7,163 468.7,311 472.1,309 "/>
<polygon class="st7" points="502.3,294.1 492.4,299.9 492.4,146.8 502.3,141.1 "/>
<polygon class="st5" points="495.7,147.4 492.4,149.3 492.4,297.3 495.7,295.4 "/>
<polygon class="st7" points="525.9,280.5 516,286.2 516,133.2 525.9,127.5 "/>
<polygon class="st5" points="519.3,133.8 516,135.7 516,283.7 519.3,281.8 "/>
<polygon class="st7" points="549.5,266.9 539.6,272.6 539.6,119.6 549.5,113.9 "/>
<polygon class="st5" points="542.9,120.2 539.6,122.1 539.6,270.1 542.9,268.2 "/>
<polygon class="st7" points="573.1,253.3 563.2,259 563.2,106 573.1,100.2 "/>
<polygon class="st5" points="566.6,106.6 563.2,108.5 563.2,256.5 566.6,254.6 "/>
<polygon class="st7" points="596.7,239.7 586.8,245.4 586.8,92.3 596.7,86.6 "/>
<polygon class="st5" points="590.2,92.9 586.8,94.9 586.8,242.9 590.2,240.9 "/>
<polygon class="st5" points="613.8,79.3 610.4,81.3 610.4,229.3 613.8,227.3 "/>
<polygon class="st4" points="522.7,0 620.3,63.9 278.7,261.1 169.2,197.9 "/>
<path class="st8" d="M96,337.9l-5.6-3.3c-0.6-0.4-1.4-0.4-2,0l0,0l-2.5,1.5l0.1,8.6l1.4,3.4v9.2c0,1.4,0.8,2.7,2,3.4l4.3,2.5
	l0.9,2.2L97,364H97l0,0l0,0c0.6-0.4,0.9-1,0.9-1.7v-21C97.9,340,97.2,338.6,96,337.9z"/>
<path class="st9" d="M95.6,342.7v20.9c0,1.1-0.9,2-2,2c-0.3,0-0.7-0.1-1-0.3l-5.6-3.3c-1.2-0.7-2-2-2-3.4v-20.9c0-1.1,0.9-2,2-2
	c0.3,0,0.7,0.1,1,0.3l5.6,3.3C94.9,340,95.6,341.3,95.6,342.7z"/>
<polyline class="st10" points="103,377.4 91,370.5 91,330.4 103.7,337.7 "/>
<path class="st9" d="M36.6,463v-5.4c0-18,9.6-34.7,25.2-43.7l0,0l27.7-14.6l16.2,9.5v33.1l-52.9,30.6L36.6,463z"/>
<path class="st11" d="M78.1,423.5L78.1,423.5c-15.6,9-25.2,25.7-25.2,43.7v5.4L109,440v-33.1L78.1,423.5z"/>
<path class="st11" d="M32.8,422.5l3.9-2.3c8.1-4.6,17.9-4.8,20.9,0.7c3.1,5.8-1.4,14-9.5,19l-5.7,3.3L32.8,422.5z"/>
<ellipse transform="matrix(0.9189 -0.3946 0.3946 0.9189 -167.845 49.856)" class="st11" cx="37.3" cy="433" rx="7.8" ry="11.4"/>
<ellipse transform="matrix(0.9189 -0.3946 0.3946 0.9189 -167.8451 49.8561)" class="st5" cx="37.3" cy="433" rx="5.6" ry="8.9"/>
<path class="st9" d="M33.8,434.5c-1.8-4.1-1.3-8.2,0.9-9.9c-0.3,0-0.6,0.1-0.9,0.2c-2.8,1.2-3.6,5.9-1.6,10.4s5.8,7.2,8.7,6
	c0.3-0.1,0.5-0.3,0.8-0.5C38.9,441.1,35.6,438.6,33.8,434.5z"/>
<polygon class="st12" points="104.8,308 94.4,362.1 183.2,413.4 193.6,359.3 "/>
<polygon class="st13" points="146.2,331.9 104.8,308 94.4,362.1 "/>
<polygon class="st13" points="141.7,389.4 183.2,413.4 193.6,359.3 "/>
<polygon class="st13" points="180.4,351.5 128.5,381.6 122.6,378.2 174.6,348.1 "/>
<polygon class="st11" points="265.4,274.7 265.4,317.9 209.6,350.1 120.8,298.8 206.2,240.6 "/>
<linearGradient id="SVGID_1_" gradientUnits="userSpaceOnUse" x1="167.2109" y1="363.5506" x2="208.3409" y2="434.7906" gradientTransform="matrix(1 0 0 -1 0 683.66)">
	<stop  offset="0.31" style="stop-color:#59B0BF"/>
	<stop  offset="0.84" style="stop-color:#3B8A9D"/>
</linearGradient>
<path class="st14" d="M176.6,223.4l-29,16.8c-8.5,4.9-14.9,12.8-17.9,22.1l-9,36.5l88.8,51.3l7.8-32.9c3.8-11.7,11.7-21.5,22.4-27.6
	l25.7-14.9L176.6,223.4z"/>
<polygon class="st15" points="120.8,298.8 104.8,308 193.6,359.3 209.6,350.1 "/>
<line class="st16" x1="193.6" y1="359.3" x2="104.8" y2="308"/>
<linearGradient id="SVGID_2_" gradientUnits="userSpaceOnUse" x1="192.4325" y1="316.0402" x2="95.5651" y2="329.9598" gradientTransform="matrix(1 0 0 -1 0 683.66)">
	<stop  offset="0" style="stop-color:#59B0BF"/>
	<stop  offset="0.14" style="stop-color:#55A9B7"/>
	<stop  offset="0.36" style="stop-color:#4994A1"/>
	<stop  offset="0.62" style="stop-color:#36737E"/>
	<stop  offset="0.92" style="stop-color:#1C454D"/>
	<stop  offset="1" style="stop-color:#15383F"/>
</linearGradient>
<path class="st17" d="M108.4,315.8l79.6,46l-8.5,43.7l-79.6-46L108.4,315.8 M104.8,308l-10.5,54.1l88.8,51.3l10.5-54.1L104.8,308z"
	/>
<polygon class="st9" points="94.4,362.1 183.2,413.4 183.2,487.1 94.4,435.8 "/>
<polygon class="st12" points="37.2,462.7 131.3,517.1 122.5,522.2 28.4,467.8 "/>
<polygon class="st11" points="122.5,522.2 28.4,467.8 28.4,483.2 122.5,537.4 "/>
<path class="st12" d="M122.5,522.2l7.8-4.5v6.2c0,5.6-3,10.8-7.8,13.5l0,0V522.2z"/>
<path class="st15" d="M106.9,369.4l-44,29.2c-8.5,5.5-13.6,14.9-13.6,25v52.6l60,34.7v-52.7c0-10.1,5.1-19.5,13.6-25l44-29.2
	L106.9,369.4z"/>
<path class="st11" d="M109.4,458.2v52.7l57.6-33.2V404l-44,29.2C114.5,438.7,109.4,448.1,109.4,458.2z"/>
<polygon class="st8" points="101.7,499.2 54.8,472.1 54.8,426.7 101.7,453.7 "/>
<polygon class="st9" points="101.7,494.7 54.8,467.7 54.8,472.1 101.7,499.2 "/>
<polygon class="st9" points="58.5,428.8 54.8,426.7 54.8,472.1 58.5,469.8 "/>
<g>
	<defs>
		<polygon id="SVGID_3_" points="110.7,504.4 54.8,472.1 54.8,426.7 110.7,459 		"/>
	</defs>
	<clipPath id="SVGID_4_">
		<use xlink:href="#SVGID_3_"  style="overflow:visible;"/>
	</clipPath>
	<g class="st18">
		<line class="st19" x1="63" y1="427.8" x2="63" y2="481.9"/>
		<line class="st19" x1="68.4" y1="430.9" x2="68.4" y2="485"/>
		<line class="st19" x1="73.9" y1="434" x2="73.9" y2="488"/>
		<line class="st19" x1="79.3" y1="437.1" x2="79.3" y2="491.2"/>
		<line class="st19" x1="84.7" y1="440.2" x2="84.7" y2="494.2"/>
		<line class="st19" x1="90.1" y1="443.3" x2="90.1" y2="497.4"/>
		<line class="st19" x1="95.5" y1="446.4" x2="95.5" y2="500.5"/>
		<line class="st19" x1="101" y1="449.5" x2="101" y2="503.5"/>
	</g>
</g>
<path class="st8" d="M106.9,369.4l-44,29.2c-4.2,2.7-7.6,6.4-10,10.8l60,34.6c2.4-4.4,5.8-8.1,10-10.8l44-29.2"/>
<path class="st15" d="M89,414.5l8.7-5.8l0,0L84,412.9c-2.9,0.9-4.9,3.6-4.9,6.6v5.4l0,0C81.5,420.7,84.9,417.1,89,414.5z"/>
<path class="st13" d="M89,414.5l8.7-5.8L85.2,414c-2.3,1-4,3-4.6,5.4l-1.4,5.5C81.6,420.7,84.9,417.1,89,414.5z"/>
<path class="st15" d="M114.1,508.2v-5.4c0-18,9.6-34.7,25.2-43.7l0,0l27.7-14.6l16.2,9.5v33.1l-52.9,30.6L114.1,508.2z"/>
<path class="st11" d="M155.5,468.6L155.5,468.6c-15.6,9-25.2,25.7-25.2,43.7v5.4l56.2-32.5v-33.1L155.5,468.6z"/>
<path class="st12" d="M119.4,462.4l3.9-2.3c8.1-4.6,17.9-4.8,20.9,0.7c3.1,5.8-1.4,14-9.5,19l-5.7,3.3L119.4,462.4z"/>
<ellipse transform="matrix(0.9189 -0.3946 0.3946 0.9189 -176.5584 87.276)" class="st12" cx="123.9" cy="472.9" rx="7.8" ry="11.4"/>
<ellipse transform="matrix(0.9189 -0.3946 0.3946 0.9189 -176.5584 87.276)" class="st4" cx="123.9" cy="472.9" rx="5.6" ry="8.9"/>
<path class="st15" d="M120.5,474.4c-1.8-4.1-1.3-8.2,0.9-9.9c-0.3,0-0.6,0.1-0.9,0.2c-2.8,1.2-3.6,5.9-1.6,10.4s5.8,7.2,8.7,6
	c0.3-0.1,0.5-0.3,0.8-0.5C125.5,481,122.2,478.5,120.5,474.4z"/>
<polygon class="st11" points="193.6,359.3 265.4,317.9 265.4,439.7 183.2,487.1 183.2,413.4 "/>
<polygon class="st13" points="197.3,363.2 188.8,406.7 226.8,384.6 226.8,346 "/>
<polygon class="st15" points="223.6,384.6 226.8,384.6 226.8,346 223.6,347.9 "/>
<polygon class="st8" points="223.6,382.7 189.8,401.8 188.8,406.7 226.8,384.6 "/>
<path class="st12" d="M219.5,402.8v2.2l7.3-4.2v-2.1c0-0.6-0.5-1-1-1c-0.2,0-0.3,0-0.5,0.1l-4.3,2.5
	C220.1,400.8,219.5,401.8,219.5,402.8z"/>
<polygon class="st12" points="183.2,468.1 265.4,420.7 265.4,418.4 183.2,465.9 "/>
<polygon class="st20" points="237.8,341.2 237.8,378.3 257.6,366.9 257.6,329.8 "/>
<path class="st12" d="M112.4,306.2l1.4-0.8c3-1.7,6.5-1.8,7.6,0.3c1.1,2-0.5,5.1-3.5,6.9l-2.1,1.2L112.4,306.2z"/>
<path class="st5" d="M114.9,313.6c-1.1,0-2.4-1.1-3-2.6c-0.4-0.9-0.5-1.8-0.4-2.8c0.1-0.7,0.5-1.3,1.1-1.6c0.2-0.1,0.4-0.1,0.6-0.1
	c1.1,0,2.4,1.1,3,2.6c0.4,0.9,0.5,1.8,0.4,2.8c-0.1,0.7-0.5,1.3-1.1,1.6C115.3,313.6,115.1,313.6,114.9,313.6z"/>
<path class="st11" d="M113.2,307.1L113.2,307.1c1.2,0.2,2.2,1.1,2.6,2.3c0.4,0.8,0.5,1.6,0.3,2.5c-0.1,0.5-0.3,0.9-0.8,1.2
	c-0.1,0.1-0.3,0.1-0.4,0.1c-1.2-0.2-2.2-1.1-2.6-2.3c-0.4-0.8-0.5-1.6-0.3-2.5c0.1-0.5,0.3-0.9,0.8-1.2
	C112.9,307.1,113,307.1,113.2,307.1 M113.2,306.1c-0.3,0-0.6,0.1-0.8,0.2c-1.4,0.6-1.9,2.9-1,5c0.8,1.7,2.2,2.9,3.5,2.9
	c0.3,0,0.6-0.1,0.8-0.2c1.4-0.6,1.9-2.9,1-5C115.9,307.2,114.5,306.1,113.2,306.1z"/>
<path class="st12" d="M134.8,319.1l1.4-0.8c3-1.7,6.5-1.8,7.6,0.3c1.1,2-0.5,5.1-3.5,6.9l-2.1,1.2L134.8,319.1z"/>
<path class="st5" d="M137.3,326.4c-1.1,0-2.4-1.1-3-2.6c-0.8-1.8-0.5-3.8,0.7-4.3c0.2-0.1,0.4-0.1,0.6-0.1c1.1,0,2.4,1.1,3,2.6
	c0.8,1.8,0.5,3.8-0.7,4.3C137.7,326.4,137.5,326.4,137.3,326.4z"/>
<path class="st11" d="M135.6,319.9L135.6,319.9c1.2,0.2,2.2,1.1,2.6,2.3c0.7,1.7,0.4,3.3-0.4,3.7c-0.1,0.1-0.3,0.1-0.4,0.1
	c-1.2-0.2-2.2-1.1-2.6-2.3c-0.7-1.7-0.4-3.3,0.4-3.7C135.3,320,135.5,319.9,135.6,319.9 M135.6,318.9c-0.3,0-0.6,0.1-0.8,0.2
	c-1.4,0.6-1.9,2.9-1,5c0.8,1.7,2.2,2.9,3.5,2.9c0.3,0,0.6-0.1,0.8-0.2c1.4-0.6,1.9-2.9,1-5C138.3,320.1,136.9,318.9,135.6,318.9z"/>
<path class="st12" d="M158.1,332.5l1.4-0.8c3-1.7,6.5-1.8,7.6,0.3c1.1,2-0.5,5.1-3.5,6.9l-2.1,1.2L158.1,332.5z"/>
<path class="st5" d="M160.6,339.8c-1.1,0-2.4-1.1-3-2.6c-0.4-0.9-0.5-1.8-0.4-2.8c0.1-0.7,0.5-1.3,1.1-1.6c0.2-0.1,0.4-0.1,0.6-0.1
	c1.1,0,2.4,1.1,3,2.6c0.4,0.9,0.5,1.8,0.4,2.8c-0.1,0.7-0.5,1.3-1.1,1.6C161,339.8,160.8,339.8,160.6,339.8z"/>
<path class="st11" d="M158.9,333.3L158.9,333.3c1.2,0.2,2.2,1.1,2.6,2.3c0.7,1.7,0.4,3.3-0.4,3.7c-0.1,0.1-0.3,0.1-0.4,0.1
	c-1.2-0.2-2.2-1.1-2.6-2.3c-0.4-0.8-0.5-1.6-0.3-2.5c0.1-0.5,0.3-0.9,0.8-1.2C158.6,333.4,158.8,333.3,158.9,333.3 M158.9,332.3
	c-0.3,0-0.6,0.1-0.8,0.2c-1.4,0.6-1.9,2.9-1,5c0.8,1.7,2.2,2.9,3.5,2.9c0.3,0,0.6-0.1,0.8-0.2c1.4-0.6,1.9-2.9,1-5
	C161.6,333.5,160.2,332.3,158.9,332.3L158.9,332.3z"/>
<path class="st12" d="M180.4,345.4l1.4-0.8c3-1.7,6.5-1.8,7.6,0.3c1.1,2-0.5,5.1-3.5,6.9l-2.1,1.2L180.4,345.4z"/>
<path class="st5" d="M182.9,352.7c-1.1,0-2.4-1.1-3-2.6c-0.8-1.8-0.5-3.8,0.7-4.3c0.2-0.1,0.4-0.1,0.6-0.1c1.1,0,2.4,1.1,3,2.6
	c0.8,1.8,0.5,3.8-0.7,4.3C183.4,352.7,183.1,352.7,182.9,352.7z"/>
<path class="st11" d="M181.3,346.2L181.3,346.2c1.2,0.2,2.2,1.1,2.5,2.3c0.7,1.7,0.4,3.3-0.5,3.7c-0.1,0.1-0.3,0.1-0.4,0.1
	c-1.2-0.2-2.2-1.1-2.5-2.3c-0.7-1.7-0.4-3.3,0.5-3.7C181,346.2,181.1,346.2,181.3,346.2 M181.3,345.2c-0.3,0-0.6,0.1-0.8,0.2
	c-1.5,0.6-1.9,2.9-1,5c0.8,1.7,2.2,2.9,3.5,2.9c0.3,0,0.6-0.1,0.8-0.2c1.5-0.6,1.9-2.9,1-5C184,346.4,182.5,345.2,181.3,345.2z"/>
<path class="st12" d="M211.5,392.9l-5.6-3.3c-0.6-0.4-1.4-0.4-2,0l0,0l-2.5,1.5l0.1,8.6l1.4,3.4v9.2c0,1.4,0.8,2.7,2,3.4l4.3,2.5
	l0.9,2.2l2.4-1.4h0.1l0,0l0,0c0.6-0.4,0.9-1,0.9-1.7v-21C213.5,394.9,212.7,393.6,211.5,392.9z"/>
<path class="st8" d="M200.4,413.7v-20.9c0-1.1,0.9-2,2-2c0.3,0,0.7,0.1,1,0.3l5.6,3.3c1.2,0.7,2,2,2,3.4v20.9c0,1.1-0.9,2-2,2
	c-0.3,0-0.7-0.1-1-0.3l-5.6-3.3C201.2,416.4,200.5,415.1,200.4,413.7z"/>
<polyline class="st21" points="193,377.7 205,384.6 205,424.7 192.3,417.3 "/>
<polygon class="st12" points="183,453.9 180.7,455.2 180.7,488.5 183.2,487.1 183.2,454 "/>
<path class="st0" d="M328.6,634.7l79.6,46c2.3,1.3,5.2,1.3,7.5,0l294.4-169.3c1.8-1,2.4-3.4,1.4-5.2c-0.3-0.6-0.8-1-1.4-1.4
	l-83.5-48.3L328.6,628.1c-1.8,1-2.4,3.4-1.4,5.2C327.5,633.9,328,634.3,328.6,634.7z"/>
<polygon class="st1" points="411.9,522.1 501,573.5 642.6,491.9 553.4,440.4 "/>
<path class="st1" d="M510.6,568v16.6l-5.8,3.4c-2.3,1.3-5.2,1.3-7.5,0l-85.3-49.2v-16.6l89.1,51.4L510.6,568z"/>
<path class="st1" d="M652.4,534.4L634,523.8l0,0c-8.8-5.1-10.7-20.7-4.2-35.9c6.8-16,20.4-25.5,30.3-21.2l17.5,10.1V520L652.4,534.4
	z"/>
<ellipse transform="matrix(0.3923 -0.9198 0.9198 0.3923 -60.9485 919.1611)" class="st2" cx="665.2" cy="505.7" rx="31.4" ry="19.6"/>
<path class="st3" d="M677.5,476.8c-9.9-4.2-23.5,5.3-30.3,21.2c-2.7,6.2-4,12.9-3.8,19.7l43.4-25.1
	C686.2,485.1,683,479.1,677.5,476.8z"/>
<path class="st4" d="M659.1,524.2c-0.6,0-1.1-0.1-1.7-0.3c-1.8-0.8-3.2-3.2-3.7-6.6c-0.7-4.5,0.2-10.1,2.4-15.4
	c4-9.5,10.8-14.6,15.1-14.6c0.6,0,1.1,0.1,1.7,0.3c1.8,0.8,3.2,3.2,3.7,6.6c0.7,4.5-0.2,10.1-2.4,15.4
	C670.2,519.1,663.4,524.2,659.1,524.2z"/>
<path class="st5" d="M671.3,487.2c-4.3,0-11.1,5.1-15.1,14.6c-1,2.5-1.8,5-2.3,7.7l23-13.3c0-0.7-0.1-1.3-0.2-2
	c-0.5-3.4-1.9-5.8-3.7-6.6C672.4,487.4,671.9,487.2,671.3,487.2z"/>
<path class="st1" d="M676.7,494.2c-0.5-3.4-1.9-5.8-3.7-6.6c-0.5-0.2-1-0.3-1.6-0.3c1.4,1.6,2.2,3.6,2.4,5.7
	c0.7,4.5-0.2,10.1-2.4,15.4c-4,9.5-10.8,14.6-15.1,14.6h-0.1c0.4,0.4,0.8,0.7,1.3,0.9c0.5,0.2,1.1,0.3,1.7,0.3
	c4.3,0,11.1-5.1,15.1-14.6C676.5,504.3,677.4,498.7,676.7,494.2z"/>
<path class="st1" d="M605,561.6L586.6,551l0,0c-8.8-5.1-10.7-20.7-4.2-35.9c6.8-16,20.4-25.5,30.3-21.2l17.4,10.1v43.2L605,561.6z"
	/>
<ellipse transform="matrix(0.3923 -0.9198 0.9198 0.3923 -114.7302 892.053)" class="st2" cx="617.8" cy="532.9" rx="31.4" ry="19.6"/>
<path class="st3" d="M630.1,504c-9.9-4.2-23.5,5.3-30.3,21.2c-2.7,6.2-4,12.9-3.8,19.7l43.4-25.1C638.8,512.2,635.6,506.3,630.1,504
	z"/>
<path class="st4" d="M611.7,551.4c-0.6,0-1.1-0.1-1.7-0.3c-1.8-0.8-3.2-3.2-3.7-6.6c-0.7-4.5,0.2-10.1,2.4-15.4
	c4-9.5,10.8-14.6,15.1-14.6c0.6,0,1.1,0.1,1.7,0.3c1.8,0.8,3.2,3.2,3.7,6.6c0.7,4.5-0.2,10.1-2.4,15.4
	C622.8,546.2,616,551.4,611.7,551.4z"/>
<path class="st5" d="M623.9,514.4c-4.3,0-11.1,5.1-15.1,14.6c-1,2.5-1.8,5-2.3,7.7l23-13.3c0-0.7-0.1-1.3-0.2-2
	c-0.5-3.4-1.9-5.8-3.7-6.6C625,514.5,624.5,514.4,623.9,514.4z"/>
<path class="st1" d="M629.3,521.4c-0.5-3.4-1.9-5.8-3.7-6.6c-0.5-0.2-1-0.3-1.6-0.3c1.4,1.6,2.2,3.6,2.4,5.7
	c0.7,4.5-0.2,10.1-2.4,15.4c-4,9.5-10.8,14.6-15.1,14.6h-0.1c0.4,0.4,0.8,0.7,1.3,0.9c0.5,0.2,1.1,0.3,1.7,0.3
	c4.3,0,11.1-5.1,15.1-14.6C629.1,531.5,630,525.8,629.3,521.4z"/>
<polygon class="st6" points="500.6,567.4 500.6,437.8 411.5,386.4 411.5,515.9 "/>
<polygon class="st7" points="701.8,321.8 500.6,437.8 500.6,567.4 701.8,451.3 "/>
<polygon class="st4" points="411.5,386.4 500.6,437.8 701.8,321.8 612.7,270.2 "/>
<path class="st9" d="M619,456c-7.1,11.3-17.4,21-26.2,26.2c-12.4,7.2-23.6,7.3-32,1.7c-0.7-0.4-0.1-1.9,0.7-1.7
	c9.1,2,20.4-0.1,32-6.8c7.8-4.5,16.5-11.8,24.4-21C619.2,452.9,620.2,454.1,619,456z"/>
<path class="st9" d="M622,449.7c-0.9-1.1-6,2.7-8.3,4.4c-0.7,0.5-0.8-0.2-0.2-1.2c4.1-6.3,10.7-9,11.5-8.1s-0.2,10.6-4,17.2
	c-0.6,1-1.1,1-0.9-0.1C621,458.4,622.9,450.7,622,449.7z"/>
<path class="st9" d="M613.9,425v-3.8c0-0.5,0.3-1.1,0.7-1.4l12.4-7.2c0.4-0.2,0.7,0,0.7,0.5v3.3c-0.2,1-0.5,2-0.9,2.9l-6.4,16.3
	c2.4-1.5,4.9-2.4,7.1-2c0.5,0.1,0.6,0.6,0.7,1.1v4.1c0,0.6-0.5,1.5-0.9,1.4c-3.8-0.5-8.9,2.1-13.1,7.6c-0.4,0.6-0.9,0.2-0.9-0.4
	v-3.9c0-1,0.1-2,0.5-2.9l7.4-19l-6.5,3.7C614.2,425.7,613.9,425.5,613.9,425z"/>
<path class="st9" d="M568.6,474.9l-3.8,2.2c-0.4,0.2-0.7,0-0.7-0.5v-26.7c0-0.5,0.3-1.1,0.7-1.4l3.5-2c0.4-0.2,0.7,0,0.7,0.5v3.5
	h0.1c0.9-3.9,2.6-6.5,5-7.8s3.8-0.7,4.9,2.1c0.9-3.9,3-6.7,5.2-8c1.6-0.9,3.3-1,4.4,0.4s1,5,1,7.8v16.7c0,0.5-0.3,1.1-0.7,1.4
	l-3.8,2.2c-0.4,0.2-0.7-0.1-0.7-0.6v-14.1c0.1-1.6,0-3.3-0.1-4.9c-0.3-1.6-1.1-1.7-2.2-1c-1.2,0.8-2,2.1-2.3,3.5
	c-0.3,1.8-0.4,3.5-0.3,5.3v14.1c0,0.5-0.3,1.1-0.7,1.4l-3.8,2.2c-0.4,0.2-0.7-0.1-0.7-0.6v-14.1c0-3,0.3-7.5-2.3-6s-2.6,5.8-2.6,8.8
	v14.1C569.4,474.1,569.1,474.6,568.6,474.9z"/>
<path class="st9" d="M638.4,405.5c5.6-3.2,8.6,1.6,8.6,10c0,8.1-3.3,16.5-8.6,19.6c-5.5,3.2-8.5-1.7-8.5-10S632.9,408.7,638.4,405.5
	z M638.4,411c-2.8,1.6-3,6.9-3,10.2s0,10.2,2.9,8.5s3.1-7.4,3.1-10.8c0.1-2.3-0.1-4.5-0.6-6.7C640.4,410.5,639.6,410.3,638.4,411
	L638.4,411z"/>
<path class="st9" d="M654.3,425.4l-3.8,2.2c-0.4,0.2-0.7-0.1-0.7-0.6v-26.7c0-0.5,0.3-1,0.7-1.3l3.5-2c0.3-0.2,0.6,0,0.7,0.4v4.1
	h0.1c1.1-4.3,2.5-6.8,5.1-8.3c1.7-1,3.3-1.1,4.4,0.6s1,5.2,1,7.7v16.8c0,0.5-0.3,1-0.7,1.3l-3.8,2.2c-0.3,0.2-0.6,0-0.7-0.5v-14.5
	c0-2.9,0.2-7.3-2.4-5.8c-1.1,0.8-1.9,2-2.2,3.4c-0.5,1.8-0.7,3.6-0.6,5.4V424C655,424.6,654.7,425.1,654.3,425.4z"/>
<path class="st9" d="M610.7,445.7c-1-1.1-1.5-2.5-1.4-4v-8.1c0-3.5,0.2-6.7-1.7-8c-1.4-1.1-3.8-0.4-5.7,0.7
	c-4.7,2.7-7.8,7.5-8.4,12.8c-0.1,0.7,0.2,0.8,0.6,0.8l3.8-1.5c0.4-0.3,0.6-0.8,0.7-1.3c0.2-2,1.3-3.8,3-4.9c0.8-0.4,1.6-0.6,2.1,0.1
	s0.5,2.3,0.5,3.5v0.6c-2.2,1.6-5.1,3.5-7.1,5.9c-2.6,3-4,6.8-4,10.8c0,5.4,2.5,6.7,5.7,4.8c2.7-1.5,4.1-3.3,6.2-7.4
	c0.5,0.9,1.2,1.7,2.2,2.2c0.3,0,0.6-0.2,0.9-0.6l-0.1,0c0.8-1.4,2.1-3.8,2.9-5.1C610.9,446.7,610.9,446.2,610.7,445.7z M603.3,447.7
	c-0.4,1.6-1.3,2.9-2.6,3.9c-1.5,0.8-2.3-0.2-2.3-2.4c0-4.4,2.9-6.9,5.6-8.5l0,1.1C604.1,443.7,603.9,445.7,603.3,447.7z"/>
<path class="st9" d="M561.2,474.3c-1-1.1-1.5-2.5-1.4-4v-8.1c0-3.5,0.2-6.7-1.7-8c-1.4-1.1-3.8-0.4-5.7,0.7
	c-4.7,2.7-7.8,7.5-8.4,12.8c-0.1,0.7,0.2,0.8,0.6,0.8l3.7-1.6c0.4-0.3,0.6-0.8,0.7-1.3c0.2-2,1.3-3.8,3-4.9c0.8-0.4,1.6-0.6,2.1,0.1
	s0.5,2.3,0.5,3.5v0.7c-2.2,1.6-5.1,3.5-7.1,5.9c-2.6,3-4,6.8-4,10.8c0,5.4,2.5,6.7,5.7,4.8c2.7-1.5,4.1-3.3,6.2-7.4
	c0.5,0.9,1.2,1.7,2.2,2.2c0.3,0,0.6-0.2,0.9-0.6l0,0c0.8-1.4,2.1-3.8,2.9-5.1C561.5,475.3,561.5,474.7,561.2,474.3z M553.8,476.2
	c-0.4,1.6-1.3,2.9-2.6,3.9c-1.5,0.8-2.3-0.2-2.3-2.4c0-4.4,2.9-6.9,5.6-8.5v1.1C554.6,472.3,554.4,474.3,553.8,476.2z"/>
<path class="st1" d="M466.3,641.6L448,631l0,0c-8.8-5.1-10.7-20.7-4.2-35.9c6.8-16,20.4-25.5,30.3-21.2l17.4,10.1v43.2L466.3,641.6z
	"/>
<ellipse transform="matrix(0.3923 -0.9198 0.9198 0.3923 -272.6194 813.1536)" class="st2" cx="479.1" cy="612.9" rx="31.4" ry="19.6"/>
<path class="st3" d="M491.5,584c-9.9-4.2-23.5,5.3-30.3,21.2c-2.7,6.2-4,12.9-3.8,19.7l43.4-25.1C500.1,592.3,496.9,586.3,491.5,584
	z"/>
<path class="st4" d="M473,631.4c-0.6,0-1.1-0.1-1.7-0.3c-1.8-0.8-3.2-3.2-3.7-6.6c-0.7-4.5,0.2-10.1,2.4-15.4
	c4-9.5,10.8-14.6,15.1-14.6c0.6,0,1.1,0.1,1.7,0.3c1.8,0.8,3.2,3.2,3.7,6.6c0.7,4.5-0.2,10.1-2.4,15.4
	C484.1,626.3,477.4,631.4,473,631.4z"/>
<path class="st5" d="M485.2,594.5c-4.3,0-11.1,5.1-15.1,14.6c-1,2.5-1.8,5-2.3,7.7l23-13.3c0-0.7-0.1-1.3-0.2-2
	c-0.5-3.4-1.9-5.8-3.7-6.6C486.4,594.6,485.8,594.5,485.2,594.5z"/>
<path class="st1" d="M490.6,601.4c-0.5-3.4-1.9-5.8-3.7-6.6c-0.5-0.2-1-0.3-1.6-0.3c1.4,1.6,2.2,3.6,2.4,5.7
	c0.7,4.5-0.2,10.1-2.4,15.4c-4,9.5-10.8,14.6-15.1,14.6h-0.1c0.4,0.4,0.8,0.7,1.3,0.9c0.5,0.2,1.1,0.3,1.7,0.3
	c4.3,0,11.1-5.1,15.1-14.6C490.4,611.5,491.3,605.9,490.6,601.4z"/>
<linearGradient id="SVGID_5_" gradientUnits="userSpaceOnUse" x1="491.9207" y1="128.2915" x2="336.0627" y2="150.6811" gradientTransform="matrix(1 0 0 -1 0 683.66)">
	<stop  offset="0" style="stop-color:#59B0BF"/>
	<stop  offset="0.14" style="stop-color:#55A9B7"/>
	<stop  offset="0.36" style="stop-color:#4994A1"/>
	<stop  offset="0.62" style="stop-color:#36737E"/>
	<stop  offset="0.92" style="stop-color:#1C454D"/>
	<stop  offset="1" style="stop-color:#15383F"/>
</linearGradient>
<path class="st22" d="M489.5,485.9l-75.1-43.4l-50,28.8c-15.6,9-25.2,25.6-25.2,43.6v83.9c0,4.5,2.4,8.7,6.3,10.9l56.3,32.5
	c7.8,4.5,17.4,4.5,25.2,0l18.7-10.8c3.9-2.2,6.3-6.4,6.3-10.9l0,0c0-16.2,8.6-31.2,22.7-39.3l14.9-8.6L489.5,485.9z"/>
<path class="st11" d="M439.5,514.8c-15.6,9-25.2,25.6-25.2,43.6v87.3c4.4,0,8.8-1.2,12.6-3.4l18.7-10.8c3.9-2.2,6.3-6.4,6.3-10.9
	l0,0c0-16.2,8.6-31.2,22.7-39.3l14.9-8.6v-86.8L439.5,514.8z"/>
<linearGradient id="SVGID_6_" gradientUnits="userSpaceOnUse" x1="399.1049" y1="163.5882" x2="436.4828" y2="228.3219" gradientTransform="matrix(1 0 0 -1 0 683.66)">
	<stop  offset="0.31" style="stop-color:#59B0BF"/>
	<stop  offset="0.84" style="stop-color:#3B8A9D"/>
</linearGradient>
<path class="st23" d="M489.5,485.9l-75.1-43.4l-50,28.8c-7.5,4.4-13.8,10.6-18.2,18.1l75.2,43.4c4.4-7.5,10.7-13.7,18.2-18.1
	L489.5,485.9z"/>
<path class="st13" d="M425.5,557.6v16.9l38-21.9v-38.8l-19.2,11.2C432.7,531.7,425.5,544.1,425.5,557.6z"/>
<polygon class="st15" points="460.2,550.6 463.5,552.5 463.5,513.8 460.2,515.7 "/>
<polygon class="st8" points="460.2,550.6 425.5,570.1 425.5,574.4 463.5,552.5 "/>
<path class="st12" d="M347.7,499.8c-2.2,5.8-3.4,11.9-3.4,18.1v48.6l61.4,35.5v-45.3c0-6.4,1-12.8,3-18.9c0.2-0.8,0.4-1.6,0.5-2.4
	L347.7,499.8z"/>
<path class="st13" d="M365.5,510.1l-17.8-10.3c-2.2,5.8-3.4,11.9-3.4,18.1v4.5L365.5,510.1z"/>
<polygon class="st13" points="367.4,579.9 405.7,602 405.7,557.7 "/>
<path class="st13" d="M345.8,567.4l10,5.8l51.4-29.8c0.4-1.9,0.9-3.8,1.5-5.7c0.2-0.8,0.4-1.6,0.5-2.4l-4.1-2.4L345.8,567.4z"/>
<path class="st5" d="M348.3,579.5c2.3,1.4,3.8,3.8,3.8,6.5v10.7c0.1,1.6-1.1,2.9-2.7,3c-0.4,0-0.8,0-1.2-0.2l0,0
	c-2.2-0.7-3.7-2.7-3.9-5v-17.3L348.3,579.5z"/>
<path class="st5" d="M405.7,611.1v15.6c0,2.6-2.1,4.1-4.7,3.3l0,0c-2.7-0.9-4.5-3.3-4.7-6.1v-11.8c0-2.1,1.7-3.8,3.8-3.8
	c0.7,0,1.3,0.2,1.9,0.5L405.7,611.1z"/>
<polygon class="st9" points="391.2,619.9 355.6,599.3 355.6,596.2 391.2,616.7 "/>
<polygon class="st9" points="391.2,612.2 355.6,591.6 355.6,588.4 391.2,609 "/>
<path class="st12" d="M453.3,571.4v2.2l7.3-4.2v-2.1c0-0.6-0.5-1-1-1c-0.2,0-0.3,0-0.5,0.1l-4.3,2.5
	C453.9,569.4,453.3,570.3,453.3,571.4z"/>
<path class="st12" d="M489.5,498.9l-15.7,8.9v74c0.3-0.2,0.6-0.4,0.9-0.5l1.7-1v-71l13.2-7.5L489.5,498.9z"/>
<path class="st2" d="M575,530.8v12.8c0,2.2-1.2,4.3-3.1,5.5l-65.2,37.7c-1.8,1-4.1,0.4-5.2-1.4c-0.3-0.6-0.5-1.2-0.5-1.9v-10
	L575,530.8z"/>
</svg>
