<svg xmlns="http://www.w3.org/2000/svg" viewBox="0 0 293.75 545.37"><defs><style>.cls-1{fill:#fdb515;}.cls-2{fill:#edab26;}.cls-3{fill:#dde8e8;}.cls-4{fill:#184b54;}.cls-5{fill:#15383f;}.cls-6{fill:#fff;}.cls-7{fill:#a1581b;}.cls-8{fill:#874514;}.cls-9{fill:#ffdf8f;}.cls-10{fill:#77bc69;}.cls-11{fill:#345b3b;}.cls-12{fill:#478455;}.cls-13{fill:#f7c745;}.cls-14{fill:#f4b544;}.cls-15{fill:#3b8a9d;}.cls-16,.cls-27{fill:#303030;}.cls-17{fill:#ffd3bd;}.cls-18{fill:#d6b0a3;}.cls-19{fill:#ceaa9b;}.cls-20{fill:#d8671a;}.cls-21{fill:#f2a983;}.cls-22{fill:#2b2b2a;}.cls-23{fill:#f90;}.cls-24{fill:#f78d1e;}.cls-25{fill:#d88f69;}.cls-26{fill:#995f35;}.cls-27{fill-rule:evenodd;}.cls-28{fill:none;stroke:#15383f;stroke-linecap:round;stroke-miterlimit:10;stroke-width:1.11px;}</style></defs><title>Asset 132</title><g id="Layer_2" data-name="Layer 2"><g id="Layer_1-2" data-name="Layer 1"><path class="cls-1" d="M155.56,229.84l-2.77-13.19,56.38-5.52,40.41-41s12.16-12.4,21.24-2.41c9.23,10.18-5.37,21.79-5.37,21.79l-42.78,36.88a15.48,15.48,0,0,1-10.11,3.79Z"/><path class="cls-2" d="M161.45,221a5.27,5.27,0,0,1-.95,5.13c-5.44,5.93-16.26,6.47-25.81.87-8.13-4.74-13-12.63-13-19.74a4.42,4.42,0,0,1,4.49-4.34,4.55,4.55,0,0,1,2.07.56l18.31,10.73a3,3,0,0,0,4-1.18,2.93,2.93,0,0,0,.22-2.45l-.23-.8a3.42,3.42,0,0,1,2-4.4l0,0a2.77,2.77,0,0,1,.8-.16,3.33,3.33,0,0,1,3.4,2.41Z"/><ellipse class="cls-3" cx="73.42" cy="432.63" rx="72.24" ry="32.37"/><path class="cls-4" d="M76.2,397.38l-1.74,6a3.51,3.51,0,0,0,2.21,3.47L110.77,422a6.09,6.09,0,0,0,6-.63L124,416a3.41,3.41,0,0,0,.84-4.76,3.33,3.33,0,0,0-1.39-1.16L94.07,394.62l-1.5-15.72-15.79-.23Z"/><path class="cls-5" d="M123.87,416l-7.21,5.37a6.09,6.09,0,0,1-6,.63L76.58,406.81a3.71,3.71,0,0,1-1.89-1.73l-.16,2.52a3.52,3.52,0,0,0,2.21,3.47l34.1,15.17a6.08,6.08,0,0,0,6-.63l7.21-5.36a3.39,3.39,0,0,0,.87-4.66,1.53,1.53,0,0,0-.31-.4A2.43,2.43,0,0,1,123.87,416Z"/><path class="cls-6" d="M94.35,405.08A1.16,1.16,0,0,1,93.16,404a1.22,1.22,0,0,1,.16-.62c3.55-6.41,9.24-6.32,9.48-6.32a1.23,1.23,0,0,1,1.18,1.27,1.21,1.21,0,0,1-1.26,1.18c-.16,0-4.51,0-7.27,5.06A1.4,1.4,0,0,1,94.35,405.08Z"/><path class="cls-6" d="M99.56,407.8a1.15,1.15,0,0,1-1.19-1.13v-.05a1.21,1.21,0,0,1,.16-.56c3.55-6.41,9.24-6.31,9.48-6.31a1.18,1.18,0,0,1,1.18,1.19V401h0a1.23,1.23,0,0,1-1.26,1.18c-.24,0-4.51,0-7.27,5.06A1.63,1.63,0,0,1,99.56,407.8Z"/><path class="cls-6" d="M104.93,410.76a1.16,1.16,0,0,1-1.19-1.14v0a1.33,1.33,0,0,1,.15-.56c3.56-6.41,9.25-6.31,9.48-6.31a1.17,1.17,0,0,1,1.19,1.18V404h0a1.24,1.24,0,0,1-1.27,1.19c-.23,0-4.5,0-7.26,5A1.27,1.27,0,0,1,104.93,410.76Z"/><path class="cls-7" d="M92,205.27,94.9,393.16s-9,5.52-19.42,1.42L50.63,202.9l23.84-8.69Z"/><path class="cls-4" d="M24.8,422.91l-2.31,6.79a4,4,0,0,0,2.4,4l38,19a6.88,6.88,0,0,0,6.86-.4l8.45-5.68a3.94,3.94,0,0,0,1.18-5.45A4.51,4.51,0,0,0,78,439.87L45.32,420.71l-.87-18-18-1.18Z"/><path class="cls-5" d="M78.16,446.76l-8.45,5.68a6.87,6.87,0,0,1-6.86.4l-38-19a4.51,4.51,0,0,1-2.05-2.13l-.32,2.92a4,4,0,0,0,2.4,4l38,19a6.85,6.85,0,0,0,6.86-.39l8.45-5.68a3.84,3.84,0,0,0,1.19-5.28.77.77,0,0,0-.32-.39A8.44,8.44,0,0,1,78.16,446.76Z"/><path class="cls-6" d="M45.17,432.65A1.15,1.15,0,0,1,44,431.52v0a1.59,1.59,0,0,1,.16-.64c4.26-7,10.65-6.62,11-6.54a1.23,1.23,0,0,1,1.1,1.33A1.26,1.26,0,0,1,55,426.73c-.24,0-5.21-.23-8.68,5.45A1.54,1.54,0,0,1,45.17,432.65Z"/><path class="cls-6" d="M50.93,435.86a1.15,1.15,0,0,1-1.19-1.12v-.06a1.55,1.55,0,0,1,.16-.63c4.26-7,10.66-6.63,11-6.55A1.23,1.23,0,0,1,62,428.84h0A1.29,1.29,0,0,1,60.72,430c-.24,0-5.21-.25-8.68,5.44A2,2,0,0,1,50.93,435.86Z"/><path class="cls-6" d="M57,439.65a1.16,1.16,0,0,1-1.19-1.13v0a1.51,1.51,0,0,1,.16-.63c4.24-7,10.65-6.64,10.94-6.56A1.25,1.25,0,0,1,68,432.65h0a1.28,1.28,0,0,1-1.27,1.11c-.23,0-5.21-.24-8.68,5.44A1.87,1.87,0,0,1,57,439.65Z"/><path class="cls-8" d="M84.56,219.24l-19.5-5.13L44.37,195.87l-23,10.35L24,418.73s11.13,6.32,22.26.63l16.5-178Z"/><path class="cls-9" d="M163,165.24a5,5,0,0,0-2.76,4.35c.08,8,7.73,16,18.63,18.63,9.23,2.29,18.15,0,23-5.05a4.39,4.39,0,0,0-.27-6.2l-.05,0a4.6,4.6,0,0,0-2-1l-20.84-5.06a3,3,0,0,1-2.14-3.62h0a2.89,2.89,0,0,1,1.51-1.9l.71-.39a3.41,3.41,0,0,0,1.49-4.58,4.22,4.22,0,0,0-.55-.8,3.57,3.57,0,0,0-4.18-.7Z"/><polygon class="cls-9" points="156.87 162.25 153.24 173.3 165.79 174.8 169.97 165.01 156.87 162.25"/><path class="cls-10" d="M160.5,161.06l-53-14.53L99.45,94A15.78,15.78,0,0,0,82.79,79.36h0a16.09,16.09,0,0,0-6,1.66,15.52,15.52,0,0,0-7.58,18.43L88.74,162.5A7.91,7.91,0,0,0,95.29,168l60.63,7.5s3.32-1.43,5-7.11C162.32,163.66,160.5,161.06,160.5,161.06Z"/><path class="cls-10" d="M58.9,73.67h0c-21.24,0-38.68,11.76-38.68,30V214.3a1.28,1.28,0,0,0,.87,1.18c6.31,2.45,40.88,16.42,71.84,0a1.18,1.18,0,0,0,.7-1.1V103.67Z"/><ellipse class="cls-11" cx="68.52" cy="97.21" rx="1.5" ry="1.97" transform="translate(-17.96 15.57) rotate(-11.47)"/><ellipse class="cls-11" cx="70.74" cy="106.43" rx="1.5" ry="1.97" transform="translate(-19.75 16.19) rotate(-11.47)"/><path class="cls-12" d="M93.63,127v87.31a1.21,1.21,0,0,1-.7,1.1c-31,16.43-65.53,2.45-71.84,0a1.17,1.17,0,0,1-.87-1.18V103.75c0-8.68,3.94-15.86,10.42-21.08l6.55,24.86,3.55,50.28Z"/><path class="cls-10" d="M44.29,74.7,16.2,87.89l19.41,20.2L80.45,82.67l6.08-3.15S79.82,79,68.61,74Z"/><polygon class="cls-9" points="126.48 292.11 122.37 206.22 206.29 157.83 210.39 243.72 126.48 292.11"/><polygon class="cls-13" points="126.48 292.11 122.37 206.22 44.93 165.72 49.03 251.61 126.48 292.11"/><polyline class="cls-14" points="206.29 157.83 128.84 117.33 44.93 165.72 122.37 206.22"/><polygon class="cls-15" points="177.08 142.51 157.66 132.41 73.75 180.79 93.16 190.98 177.08 142.51"/><polygon class="cls-4" points="93.16 190.98 94.66 223.27 75.32 213.09 73.75 180.79 93.16 190.98"/><path class="cls-16" d="M105,236.85a40.28,40.28,0,0,1-21,1.5,44.09,44.09,0,0,1-24.48-15.08c-.55-.63-1.18.16-.8.95,5.36,10.1,13.57,17.13,23.76,19.24a30.86,30.86,0,0,0,23.05-4.58C106.66,238.11,106.11,236.45,105,236.85Z"/><path class="cls-16" d="M101.92,232.74c-.62.39-.62,1.11-.08,1.11,1.9.08,6.24.24,6.72,1.74s-2.06,6.55-3.16,8.82c-.32.7.07,1.09.63.62,3.79-2.92,5.92-10.34,5.45-11.52S105.86,230.22,101.92,232.74Z"/><path class="cls-17" d="M67.11,198.09A4.93,4.93,0,0,0,62.85,201c-3.16,7.42.8,17.76,9.62,24.55,7.58,5.77,16.66,7.27,23.13,4.5a4.42,4.42,0,0,0,2.24-5.8,4.23,4.23,0,0,0-1.42-1.74l-17.13-13a2.92,2.92,0,0,1-.62-4.09l.07-.09a3.06,3.06,0,0,1,2.19-1.17l.8-.08a3.44,3.44,0,0,0,3.21-3.63,3.18,3.18,0,0,0-.16-.87,3.52,3.52,0,0,0-3.56-2.28Z"/><polygon class="cls-17" points="62.61 192.96 54.95 201.64 65.85 207.96 73.58 200.61 62.61 192.96"/><path class="cls-10" d="M66.48,193.27,23.69,158.93l13.42-51.39a15.7,15.7,0,0,0-9.47-20h0a15,15,0,0,0-6.16-.87,15.46,15.46,0,0,0-14.29,14L0,166.12a7.92,7.92,0,0,0,3.87,7.65l52.66,31s3.63,0,7.34-4.5C67.11,196.35,66.48,193.27,66.48,193.27Z"/><path class="cls-17" d="M68.53,79.36V55.2H44.29V76.51A8.14,8.14,0,0,0,46.42,82c2.93,3.08,8.69,7.9,16.27,7.9C71.29,89.86,68.53,79.36,68.53,79.36Z"/><path class="cls-18" d="M68.53,53.3H44.29V72.74c3.94,3.1,8.81,2.8,13.82,2.81h0c3.66,0,7.27-1.88,10.5-3.61Z"/><path class="cls-17" d="M62.85,8.23A22.54,22.54,0,0,0,38.85,29l-1.34,19.1a22.4,22.4,0,0,0,44.68,3.16l1.34-19.1A22.44,22.44,0,0,0,62.85,8.23Z"/><path class="cls-19" d="M69.24,38.62,66.58,50.78a.8.8,0,0,0,.62.94h0l3.88.8a2.71,2.71,0,0,0,3.2-2.13A3,3,0,0,0,74.2,49L70.8,38.55a.83.83,0,0,0-1.56.07Z"/><circle class="cls-5" cx="60.61" cy="40.12" r="2.13"/><circle class="cls-5" cx="77.02" cy="41.27" r="2.13"/><path class="cls-5" d="M57.76,36.57a1.18,1.18,0,0,1-.67-2.16,8.47,8.47,0,0,1,7-1.12,1.2,1.2,0,1,1-.69,2.29,6,6,0,0,0-5,.8A1.21,1.21,0,0,1,57.76,36.57Z"/><path class="cls-5" d="M81.55,37.91a1.24,1.24,0,0,1-.8-.3,6.16,6.16,0,0,0-4.81-1.52,1.17,1.17,0,0,1-1.34-1,.22.22,0,0,0,0-.08,1.19,1.19,0,0,1,1-1.31,8.5,8.5,0,0,1,6.71,2.11,1.18,1.18,0,0,1-.81,2.06Z"/><path class="cls-5" d="M81.87,4.2A.92.92,0,0,1,82.35,3a1.22,1.22,0,0,1,.8,0A12.52,12.52,0,0,1,89.7,11.7a14.45,14.45,0,0,1-1.89,10,8.37,8.37,0,0,1-5.85,4c-17,3-35.37-4.89-35.37-4.89C47.07,34.9,40,43.11,40,43.11l-4.5-.33-4-3.39c.55-8-6.71-25.58,7.58-24.55A16.45,16.45,0,0,1,54,.24C55.84,0,63.11-1.27,70.84,5.77,77.38,11.79,83.85,8.7,81.87,4.2Z"/><ellipse class="cls-17" cx="37.19" cy="41.47" rx="5.84" ry="8.76" transform="translate(-11.01 13.56) rotate(-18.04)"/><ellipse class="cls-3" cx="223.89" cy="514.1" rx="69.86" ry="31.26"/><path class="cls-20" d="M278,499.81c1.66,1.26,3,5.61,1.11,7l-7.82,6a6.67,6.67,0,0,1-6.63.8l-37.82-16.1a4,4,0,0,1-2.53-3.79s.17-4,2.46-5.52a28.92,28.92,0,0,1,3.7-2.21,10.52,10.52,0,0,1,9.24-.72C239.6,485.28,269.29,493.34,278,499.81Z"/><path class="cls-5" d="M279.08,506.84l-7.82,6a6.67,6.67,0,0,1-6.63.8l-37.82-16.1a4.45,4.45,0,0,1-2.12-1.9l-.16,2.85a4,4,0,0,0,2.52,3.78l37.81,16.11a6.67,6.67,0,0,0,6.63-.8l7.82-6a3.67,3.67,0,0,0,.87-5.13h0c-.08-.15-.24-.23-.32-.39A3.75,3.75,0,0,1,279.08,506.84Z"/><path class="cls-6" d="M238.34,494.52a1.21,1.21,0,0,1-1.26-1.11.85.85,0,0,1,.15-.62c3.71-7,9.87-7,10.19-7a1.2,1.2,0,0,1,1.18,1.18h0a1.21,1.21,0,0,1-1.18,1.19c-.24,0-5.06.08-8,5.76A1.43,1.43,0,0,1,238.34,494.52Z"/><path class="cls-6" d="M244.18,496.65a1.22,1.22,0,0,1-1.27-1.11.81.81,0,0,1,.17-.62c3.71-7,9.86-7,10.18-7a1.21,1.21,0,0,1,1.18,1.18h0a1.22,1.22,0,0,1-1.18,1.19c-.24,0-5,.07-8,5.76A1.25,1.25,0,0,1,244.18,496.65Z"/><path class="cls-6" d="M250.26,499a1.21,1.21,0,0,1-1.26-1.1.9.9,0,0,1,.15-.64c3.71-7,9.87-7,10.19-7a1.19,1.19,0,0,1,0,2.37c-.24,0-5.06.08-8,5.76A1.2,1.2,0,0,1,250.26,499Z"/><path class="cls-20" d="M231.79,518c1.6,1.34,2.52,5.76.63,7.1l-8.22,5.45a6.62,6.62,0,0,1-6.62.31L181,512a4,4,0,0,1-2.29-4s.47-3.86,2.84-5.37c1-.62,2.13-1.09,3.79-2a10.59,10.59,0,0,1,9.24-.08S223.58,510.86,231.79,518Z"/><path class="cls-5" d="M232.42,525.07l-8.22,5.45a6.62,6.62,0,0,1-6.62.31L181,512a4.47,4.47,0,0,1-2-2.06l-.4,2.76a3.88,3.88,0,0,0,2.29,3.95l36.54,18.79a6.65,6.65,0,0,0,6.64-.32l8.21-5.45a3.63,3.63,0,0,0,1.31-5l-.05-.09a1.6,1.6,0,0,0-.31-.47A4.64,4.64,0,0,1,232.42,525.07Z"/><path class="cls-6" d="M192.71,509.84a1.21,1.21,0,0,1-1.18-1.19,1.5,1.5,0,0,1,.15-.63c4.19-6.71,10.34-6.32,10.66-6.24a1.15,1.15,0,0,1,1,1.27,1.28,1.28,0,0,1-1.27,1.1c-.23,0-5-.32-8.45,5.13A1.11,1.11,0,0,1,192.71,509.84Z"/><path class="cls-6" d="M198.31,512.36a1.22,1.22,0,0,1-1.18-1.18,1.59,1.59,0,0,1,.16-.64c4.18-6.71,10.34-6.31,10.66-6.23a1.14,1.14,0,0,1,1,1.26,1.27,1.27,0,0,1-1.26,1.11c-.24,0-5.05-.32-8.44,5.13A1.11,1.11,0,0,1,198.31,512.36Z"/><path class="cls-6" d="M204.24,515.13a1.23,1.23,0,0,1-1.19-1.19,1.37,1.37,0,0,1,.16-.63c4.18-6.71,10.34-6.32,10.65-6.24a1.28,1.28,0,0,1,1.11,1.27,1.21,1.21,0,0,1-1.26,1.1c-.24,0-5.06-.32-8.45,5.13A1,1,0,0,1,204.24,515.13Z"/><path class="cls-21" d="M273.31,499.5l-1.42-61.19L264,433.1l-10.82,6.71,7.66,60a4.68,4.68,0,0,0,.47,1.5,6.44,6.44,0,0,0,5.85,3,6.16,6.16,0,0,0,5.68-2.92A3.79,3.79,0,0,0,273.31,499.5Z"/><path class="cls-21" d="M227.29,516.83l5.52-66-7.89-6.56-12.4,5.92,1.34,65.52a4.31,4.31,0,0,0,.4,1.66,7.06,7.06,0,0,0,5.92,4c3.71.39,5.61-1.26,6.48-2.45A3.83,3.83,0,0,0,227.29,516.83Z"/><path class="cls-16" d="M272.44,297l2.85,162.47s-15.4,6.47-23.85,1.26L233,294.4l22.88-8.13Z"/><path class="cls-22" d="M205,297.39,210,479.84s12.39,6.24,23.13,1L247,305.53l-19.9-17.76Z"/><path class="cls-22" d="M237.08,327.24s24.47-4.66,35.68-18.79l-.24-15-39.71,10.94Z"/><path class="cls-23" d="M196.19,203.85l1.65-15a5.8,5.8,0,0,1,2.52-4.26,113.81,113.81,0,0,1,47.45-19.5s16-2,23.84,12.07c4,7.27,1.42,23.84,1.42,34.11Z"/><path class="cls-23" d="M264.54,313.81c7.75-2,17.76-.91,15.56-11.91-2.45-9.16-9.87-32.37-10.42-37.42-2.29-18.61,1.42-30.63,3.08-48.32,1.26-13.73-.32-19.57-.32-19.57l-23.6-20.46-47.21,15s5.05,54.39,2.41,80.16c-.48,4.58-5.69,36.71-3.56,38.76,3.56,3.47,4.81.95,15.44,4.81,8.2,3,12,3.47,28.69,1.66C253.18,315.4,258.51,315.19,264.54,313.81Z"/><path class="cls-24" d="M217.1,190.9l-15.16,5.92c.56,6.79-8,10.66-7.33,23.61.7,15.08,12.07,13.42,9.31,50.68-.32,4.58-5.68,36.71-3.56,38.76,3.56,3.48,4.81.95,15.44,4.81a42.76,42.76,0,0,0,8.44,2.47,43.83,43.83,0,0,0,4.86.41c-6.79-14.68-11.44-46-10.73-64.62C220,207.64,217.1,190.9,217.1,190.9Z"/><path class="cls-21" d="M246,151l-23.44-1.5a112.48,112.48,0,0,1,2.37,13c.63,8-5.29,11-5.29,11s7,4.51,18.56.24c7.57-2.76,7.33-6.71,7.33-6.71Z"/><path class="cls-5" d="M205.5,128.83a1.18,1.18,0,0,1-1.19-1.18,1.19,1.19,0,0,1,.47-1,8.34,8.34,0,0,1,6.7-1.6,1.18,1.18,0,0,1-.41,2.33h0a6,6,0,0,0-4.81,1.13A1.14,1.14,0,0,1,205.5,128.83Z"/><path class="cls-13" d="M254,121.62a23.25,23.25,0,0,0-23.52-23h0a23.26,23.26,0,0,0-23,23.52l.24,19.9a23.25,23.25,0,0,0,46.49-.55h0Z"/><path class="cls-21" d="M254,121.62a23.25,23.25,0,0,0-23.52-23h0a23.26,23.26,0,0,0-23,23.52l.24,19.9a23.25,23.25,0,0,0,46.49-.55h0Z"/><path class="cls-5" d="M230.44,98.54c-9.47.08-14.84,1.11-18.39,9.39-2.6,5.85,1,8.37,5,9.55,7.74,2.29-2,11-1,14.21l6.71,8s.63,20.44,11.29,25a23.41,23.41,0,0,0,20.21-23.25L254,121.59A23.42,23.42,0,0,0,230.44,98.54Z"/><ellipse class="cls-25" cx="218.62" cy="136.7" rx="7.42" ry="4.9" transform="translate(11.36 290.08) rotate(-68.52)"/><ellipse class="cls-26" cx="218.38" cy="140.41" rx="2.29" ry="1.5" transform="translate(-13.99 256.21) rotate(-59.23)"/><path class="cls-1" d="M118.68,279.08l-3.79-12.71,51.72-23.05L192.26,193s7.65-15.16,19.42-9c11.84,6.32,1.65,21.56,1.65,21.56l-29.2,47.36a16.09,16.09,0,0,1-8.45,6.71Z"/><path class="cls-21" d="M124.42,267.56a4.58,4.58,0,0,1,.64,5c-3.4,7.11-13.42,11.05-24.16,9-9.16-1.74-16.19-7.34-18.39-13.89a4.33,4.33,0,0,1,2.83-5.43l.08,0a4,4,0,0,1,2.14-.08l20.6,3.95a2.9,2.9,0,0,0,3.4-2.28h0a3.16,3.16,0,0,0-.55-2.37l-.48-.63a3.21,3.21,0,0,1,.38-4.52l.18-.14a5.78,5.78,0,0,1,.8-.47,3.46,3.46,0,0,1,4,1.1Z"/><path class="cls-5" d="M125.14,259.5l4.1-1.43a1.65,1.65,0,0,1,2,.95l5.14,14.53a1.66,1.66,0,0,1-1,2.05L131.37,277a1.66,1.66,0,0,1-2.06-.94l-5.13-14.53A1.6,1.6,0,0,1,125.14,259.5Z"/><path class="cls-24" d="M219.28,109.87s-20.43-2.91-24.13,1.38,11.33,9.17,16.35,11.41S219.28,109.87,219.28,109.87Z"/><path class="cls-5" d="M241.66,149.74c-9.21,2.61-12.59.51-14.22-3.69s-5.62-9.71-8-11.22-4.08-1.28-5.22-2c-.8-.53-1.14-4.32-1.27-6.5a18.81,18.81,0,0,0,5.1,5.34c6.92,4.57,16,8.07,26.76,6,7.27-1.43,9.93-4.62,9.93-4.62a43.53,43.53,0,0,0-3.88,15A71.15,71.15,0,0,0,241.66,149.74Z"/><path class="cls-23" d="M206.94,120.82a33.26,33.26,0,0,0,10.85,12.4c7.26,4.81,16.84,8.45,28.06,6.23,7.61-1.5,10.42-4.81,10.42-4.81s6.13-17-2-26.65c-7.38-8.75-24.71-11.22-34.67-8.1C207.59,103.6,206.94,120.82,206.94,120.82Z"/><path class="cls-27" d="M265.31,202.37c-4.53,4.89-11.68,8.37-18.11,9.62a33.77,33.77,0,0,1-24.79-4.81c-.55-.36-.23-1.05.42-.8a46,46,0,0,0,24.34,2,46.78,46.78,0,0,0,17.19-7.09C265.17,200.72,266.06,201.56,265.31,202.37Z"/><path class="cls-27" d="M267.05,199.43c-.8-.74-4.43.41-6.06.93-.5.16-.64-.28-.24-.69,2.61-2.7,7.54-3,8.23-2.41s.8,5.75-1.61,8.65c-.36.45-.8.33-.69-.19C267,204,267.85,200.18,267.05,199.43Z"/><path class="cls-28" d="M62.76,59.68a12.45,12.45,0,0,0,7.54.75"/></g></g></svg>