<?xml version="1.0" encoding="utf-8"?>
<!-- Generator: Adobe Illustrator 22.0.1, SVG Export Plug-In . SVG Version: 6.00 Build 0)  -->
<svg version="1.1" id="Layer_2_1_" xmlns="http://www.w3.org/2000/svg" xmlns:xlink="http://www.w3.org/1999/xlink" x="0px" y="0px"
	 viewBox="0 0 569 562.4" style="enable-background:new 0 0 569 562.4;" xml:space="preserve">
<style type="text/css">
	.st0{fill:#DDE8E8;}
	.st1{fill:#184B54;}
	.st2{fill:url(#SVGID_1_);}
	.st3{fill:#D8671A;}
	.st4{fill:url(#SVGID_2_);}
	.st5{fill:url(#SVGID_3_);}
</style>
<title>37_Line_Chart</title>
<path class="st0" d="M199.5,200.2c0,0-36.1,113-42.8,131.6C145.5,362.5,52.9,353,15,375.7c-26.4,15.8-12,48.6-2.2,65.9l56.5,100.5
	l37.8,20.2h60.6v-4.4h51.6v-4.8h50.5v-78.9l13.8-9.4l224.6-99.9L199.5,200.2z"/>
<path class="st1" d="M505.3,0l21.5,13l-46.6,74.5l-2.3,299.4L167.7,562.4l-21.5-13l69.5-205.2c12.1-35.7,36.9-102,64.9-123.6
	c40.1-30.9,75.2,16.2,110.3-38.2C411.9,149.6,505.3,0,505.3,0z"/>
<linearGradient id="SVGID_1_" gradientUnits="userSpaceOnUse" x1="406.0835" y1="174.7507" x2="290.6235" y2="374.7307" gradientTransform="matrix(1 0 0 -1 0 564.4)">
	<stop  offset="0" style="stop-color:#15383F"/>
	<stop  offset="1" style="stop-color:#3B8A9D"/>
</linearGradient>
<path class="st2" d="M526.8,13v342.9L167.7,562.4l69.5-205.2c12.1-35.7,36.9-102,64.9-123.5c40.1-30.9,75.2,16.2,110.3-38.2
	C433.4,162.6,526.8,13,526.8,13z"/>
<path class="st3" d="M197.6,545.2l48.4-146.5c7-21.1,23.5-38.4,38.1-39.6l27.1-2.3c12.4-1.1,26.6-13.9,34.8-31.5l9.8-20.8
	c7.4-15.9,19.8-28,31.5-30.9l20-4.9c10.5-2.6,21.6-12.7,29.2-26.6l48.2-87.8c6.9-12.6,16.8-22.2,26.5-25.8l15.6-5.7l21.7,12.3v233.2
	L219.3,557.5L197.6,545.2z"/>
<linearGradient id="SVGID_2_" gradientUnits="userSpaceOnUse" x1="428.5341" y1="140.8011" x2="343.4441" y2="288.1811" gradientTransform="matrix(1 0 0 -1 0 564.4)">
	<stop  offset="0.11" style="stop-color:#EA831C"/>
	<stop  offset="0.5" style="stop-color:#EDAB26"/>
	<stop  offset="1" style="stop-color:#F7C745"/>
</linearGradient>
<path class="st4" d="M219.3,557.5L267.7,411c7-21.1,23.5-38.4,38.1-39.6l27.1-2.3c12.4-1.1,26.6-13.9,34.8-31.5l9.8-20.8
	c7.4-15.9,19.8-28,31.5-30.9l20-4.9c10.5-2.6,21.7-12.8,29.2-26.6l48.2-87.8c6.9-12.6,16.8-22.2,26.5-25.8l15.6-5.7v233.3
	L219.3,557.5z"/>
<linearGradient id="SVGID_3_" gradientUnits="userSpaceOnUse" x1="462.7434" y1="96.3965" x2="408.7934" y2="189.8465" gradientTransform="matrix(1 0 0 -1 0 564.4)">
	<stop  offset="0" style="stop-color:#15383F"/>
	<stop  offset="1" style="stop-color:#3B8A9D"/>
</linearGradient>
<path class="st5" d="M269.7,552.2l44.2-72.5c18.2-29.9,42.6-52.3,66.4-60.9l42.7-15.5c20.1-7.3,40.8-24.5,57.8-48L569,233.6v146.6
	L269.7,552.2z"/>
<path class="st1" d="M380.3,418.8l42.7-15.5c20.1-7.3,40.8-24.5,57.8-48L569,233.6l-20.5-11.9l-88.2,121.8
	c-17,23.5-37.7,40.7-57.8,48l-42.7,15.5c-23.8,8.6-48.2,31-66.4,60.9l-44.2,72.5l20.6,11.9l44.2-72.5
	C332.1,449.8,356.5,427.5,380.3,418.8z"/>
</svg>
